<svg width="294" height="195" viewBox="0 0 294 195" fill="none" xmlns="http://www.w3.org/2000/svg">
<path d="M189.905 96.7133C189.601 96.9408 189.261 97.1161 188.899 97.232C187.904 97.5758 186.82 97.562 185.833 97.193C185.15 96.9435 184.535 96.5359 184.039 96.0035C183.469 95.3885 183.074 94.6315 182.897 93.8117C182.797 93.3706 182.765 92.9168 182.803 92.4662C182.836 91.9948 182.942 91.5316 183.119 91.0934C183.487 90.1631 184.144 89.3751 184.992 88.8452C185.841 88.3153 186.837 88.0712 187.834 88.1489C188.761 88.2219 189.646 88.5679 190.377 89.1434C191.035 89.663 191.542 90.35 191.843 91.1324C192.105 91.8111 192.203 92.5421 192.128 93.2657C192.024 94.3142 191.559 95.2941 190.814 96.0386C190.55 96.3122 190.243 96.5402 189.905 96.7133C190.199 96.4839 190.478 96.2378 190.744 95.9762C191.44 95.2271 191.863 94.2653 191.945 93.2462C192.006 92.5534 191.903 91.856 191.644 91.2104C191.349 90.4697 190.862 89.8209 190.233 89.3306C189.896 89.0661 189.521 88.8532 189.121 88.6988C188.706 88.5316 188.266 88.4328 187.819 88.4063C186.876 88.3348 185.936 88.566 185.134 89.0662C184.332 89.5663 183.711 90.3093 183.361 91.187C183.192 91.6012 183.089 92.0395 183.057 92.4857C183.017 92.9123 183.044 93.3424 183.135 93.761C183.288 94.4916 183.621 95.1725 184.104 95.7418C184.587 96.3112 185.204 96.751 185.9 97.0214C186.85 97.3911 187.896 97.4309 188.872 97.1345C189.574 96.92 189.889 96.686 189.905 96.7133Z" fill="#E0E0E0"/>
<path d="M190.744 102.777L190.861 102.883L191.212 103.222L192.585 104.575H192.534L196.137 102.294L196.11 102.372C195.849 101.639 195.56 100.812 195.252 99.9422V99.8993L195.283 99.8642C195.915 99.1899 196.451 98.4328 196.878 97.6139L196.902 97.5671H199.534L199.441 97.6373C199.741 96.3308 200.061 94.9385 200.392 93.4799L200.447 93.5969L198.126 92.4815L198.068 92.4542V92.3879C198.038 91.4616 197.885 90.5435 197.612 89.6579L197.592 89.5916L197.639 89.5448C198.208 88.9832 198.832 88.3748 199.468 87.7274V87.8756L197.159 84.2759L197.304 84.3266L194.874 85.1768L194.8 85.2002L194.745 85.1495C194.074 84.5216 193.322 83.9852 192.51 83.5544L192.44 83.5193V83.4413C192.44 82.634 192.44 81.7565 192.44 80.8634L192.542 80.9921L188.404 80.0366L188.552 79.9664L187.429 82.3064L187.398 82.3766H187.316C186.399 82.4061 185.49 82.557 184.613 82.8251V82.8251L184.48 82.79L184.453 82.7627L184.395 82.7042L184.281 82.5872L184.055 82.3571L183.599 81.9008L182.694 80.9882L182.858 81.0077L179.239 83.2658L179.293 83.1098C179.577 83.9288 179.859 84.74 180.14 85.5434L180.167 85.6175L180.112 85.676C179.482 86.3451 178.945 87.0969 178.517 87.9107L178.478 87.977H178.404H175.826L175.947 87.8795C175.62 89.2939 175.298 90.6784 174.984 92.033L174.918 91.8965L177.238 93.0197L177.3 93.0509V93.1211C177.326 94.0472 177.477 94.9656 177.749 95.8511L177.768 95.9174L177.718 95.9642L175.885 97.7738V97.6373L178.135 101.26L178.018 101.221L180.452 100.379L180.506 100.359L180.549 100.398C181.221 101.03 181.974 101.571 182.788 102.005L182.835 102.029V102.083C182.835 103.019 182.835 103.862 182.815 104.657L182.753 104.583L186.902 105.562L186.836 105.593L187.975 103.281V103.257H187.998C188.696 103.238 189.391 103.151 190.073 103L190.576 102.879L190.744 102.844L190.58 102.902C190.471 102.937 190.307 102.988 190.081 103.043C189.4 103.214 188.703 103.315 188.002 103.343L188.037 103.316L186.933 105.656L186.91 105.699H186.867L182.706 104.759H182.647V104.696C182.647 103.916 182.647 103.054 182.647 102.118L182.69 102.196C181.86 101.76 181.091 101.214 180.405 100.574L180.498 100.593L178.069 101.448L177.995 101.475L177.952 101.409L175.686 97.7933L175.639 97.7192L175.701 97.6568L177.527 95.8433L177.499 95.9564C177.221 95.0571 177.065 94.1244 177.035 93.1835L177.102 93.2849L174.762 92.1695L174.676 92.1266L174.695 92.033L175.666 87.7859L175.686 87.6884H175.787H178.365L178.252 87.7547C178.692 86.9211 179.242 86.1499 179.886 85.4615L179.859 85.5941C179.578 84.7907 179.295 83.9795 179.009 83.1605L178.974 83.063L179.063 83.0084L182.679 80.7503L182.768 80.6918L182.842 80.7659L183.747 81.6785L184.2 82.1387L184.43 82.3688L184.543 82.4858L184.601 82.5404L184.629 82.5716C184.363 82.5053 184.554 82.5521 184.496 82.5365C185.396 82.261 186.328 82.1062 187.269 82.0763L187.156 82.1504L188.279 79.8104L188.322 79.7168L188.423 79.7402L192.577 80.6996L192.678 80.723V80.8283C192.678 81.7175 192.678 82.5989 192.678 83.4062L192.612 83.2931C193.444 83.7336 194.214 84.2832 194.901 84.9272L194.776 84.8999L197.21 84.0575L197.3 84.0224L197.354 84.1082L199.608 87.7274L199.655 87.8054L199.589 87.8717C198.953 88.5035 198.325 89.1197 197.756 89.6813L197.787 89.5682C198.061 90.4684 198.214 91.4007 198.243 92.3411L198.181 92.2475L200.502 93.3746L200.576 93.4097L200.556 93.4877C200.217 94.9463 199.889 96.3347 199.585 97.6412V97.7153H199.511H196.933L197.007 97.6685C196.567 98.4962 196.017 99.2609 195.373 99.9422V99.8642C195.677 100.742 195.958 101.565 196.212 102.302L196.231 102.352L196.184 102.38L192.553 104.618H192.526L192.503 104.595L191.173 103.222L190.833 102.863C190.802 102.837 190.772 102.808 190.744 102.777Z" fill="#E0E0E0"/>
<path fill-rule="evenodd" clip-rule="evenodd" d="M199.226 71.9208C197.969 72.3083 196.665 72.526 195.35 72.5682L193.762 75.8481L187.889 74.4909V70.8444C186.724 70.231 185.647 69.4636 184.687 68.5629L181.247 69.7641L178.057 64.6473L180.643 62.085C180.256 60.826 180.04 59.5209 179.999 58.2045L176.715 56.6211L178.092 50.736H181.735C182.351 49.5719 183.119 48.4951 184.02 47.5341L182.819 44.106L187.936 40.9158L190.498 43.5015C191.756 43.115 193.059 42.8986 194.375 42.858L195.962 39.5742L201.835 40.9353V44.5779C202.998 45.1931 204.073 45.9604 205.033 46.8594L208.473 45.6621L211.667 50.775L209.074 53.3568C209.463 54.6139 209.681 55.9179 209.721 57.2334L213.001 58.8207L211.644 64.6941H208.001C207.385 65.8569 206.616 66.9323 205.716 67.8921L206.917 71.3319L201.788 74.526L199.226 71.9364V71.9208ZM198.056 63.3408C199.142 62.6632 200.002 61.6789 200.528 60.5124C201.054 59.346 201.222 58.0497 201.012 56.7875C200.801 55.5254 200.221 54.354 199.345 53.4215C198.468 52.4891 197.335 51.8374 196.088 51.5489C194.842 51.2604 193.538 51.3481 192.341 51.8008C191.144 52.2535 190.108 53.0509 189.364 54.0923C188.621 55.1336 188.203 56.3721 188.163 57.6511C188.123 58.9301 188.463 60.1921 189.141 61.2777C189.59 61.9996 190.176 62.6259 190.868 63.1209C191.559 63.6159 192.341 63.9699 193.168 64.1626C193.996 64.3553 194.854 64.3829 195.693 64.2439C196.532 64.1049 197.335 63.802 198.056 63.3525V63.3408Z" fill="#E0E0E0"/>
<path fill-rule="evenodd" clip-rule="evenodd" d="M213.063 91.3508C212.394 91.5554 211.7 91.6708 211 91.694L210.158 93.4373L207.038 92.7158V90.7658C206.419 90.4385 205.846 90.0306 205.334 89.5529L203.504 90.1886L201.808 87.4586L203.185 86.0975C202.977 85.4286 202.861 84.7345 202.841 84.0344L201.094 83.1881L201.816 80.0681H203.766C204.095 79.4507 204.505 78.8791 204.983 78.3677L204.343 76.5386L207.073 74.8382L208.438 76.2149C209.108 76.0103 209.801 75.8949 210.501 75.8717L211.343 74.1245L214.463 74.8499V76.7999C215.082 77.1264 215.654 77.5343 216.164 78.0128L217.997 77.3771L219.693 80.1071L218.317 81.4721C218.524 82.141 218.64 82.8351 218.66 83.5352L220.407 84.3776L219.686 87.4976H217.736C217.407 88.1168 216.998 88.6899 216.519 89.2019L217.158 91.031L214.428 92.7314L213.063 91.3547V91.3508ZM212.443 86.7917C213.021 86.4315 213.48 85.9079 213.76 85.2872C214.041 84.6664 214.131 83.9764 214.02 83.3044C213.908 82.6324 213.599 82.0086 213.133 81.5119C212.667 81.0153 212.064 80.668 211.4 80.5141C210.737 80.3602 210.042 80.4066 209.405 80.6474C208.768 80.8882 208.216 81.3125 207.82 81.8668C207.424 82.4211 207.202 83.0803 207.18 83.7612C207.159 84.4421 207.34 85.114 207.701 85.6919C208.184 86.4664 208.955 87.0172 209.844 87.2235C210.734 87.4297 211.668 87.2744 212.443 86.7917V86.7917Z" fill="#EBEBEB"/>
<path d="M93.384 56.8395C93.4269 56.8785 91.5978 58.7544 89.3007 61.0242C87.0036 63.294 85.1121 65.1036 85.0731 65.0646C85.0341 65.0256 86.8632 63.1497 89.1603 60.8799C91.4574 58.6101 93.345 56.8005 93.384 56.8395Z" fill="#E0E0E0"/>
<path d="M93.4035 65.0452C93.3645 65.0842 91.4535 63.2824 89.1603 61.0244C86.8671 58.7663 85.0146 56.902 85.0536 56.8591C85.0926 56.8162 87.0036 58.618 89.3007 60.88C91.5978 63.142 93.4464 65.0023 93.4035 65.0452Z" fill="#E0E0E0"/>
<path d="M101.656 108.745C101.656 108.799 99.3159 108.596 96.4455 108.296C93.5751 107.996 91.2507 107.699 91.2546 107.645C91.2585 107.59 93.5946 107.789 96.465 108.093C99.3354 108.397 101.664 108.686 101.656 108.745Z" fill="#E0E0E0"/>
<path d="M101.243 112.66C101.243 112.715 98.9026 112.516 96.0322 112.212C93.1618 111.907 90.8335 111.619 90.8413 111.564C90.8491 111.51 93.1813 111.708 96.0517 112.009C98.9221 112.309 101.25 112.605 101.243 112.66Z" fill="#E0E0E0"/>
<path d="M73.1197 100.145C73.1197 100.145 70.0309 99.923 70.3156 106.853C70.6003 113.784 71.3062 117.469 71.3062 117.469C71.3062 117.469 71.2165 119.006 70.027 118.705C68.8375 118.405 66.5989 116.908 65.4913 118.027C64.3837 119.146 64.7542 120.964 66.2713 123.058C67.7884 125.152 70.9513 129.859 71.2399 130.285C71.5285 130.71 71.6299 131.49 70.7875 131.416C69.9451 131.341 64.2511 129.411 63.4984 132.168C62.7457 134.926 67.9405 140.046 68.4982 140.631C69.0559 141.216 69.0871 141.567 68.8609 141.914C68.6347 142.261 66.7822 141.431 65.1403 140.947C63.4984 140.464 61.5094 140.194 61.2091 141.821C60.9088 143.447 63.1942 148.205 71.7625 153.209L75.8848 155.256L79.7848 152.768C87.8071 146.918 89.6089 141.969 89.1448 140.378C88.6807 138.787 86.7307 139.258 85.1473 139.906C83.5639 140.553 81.8011 141.559 81.5437 141.236C81.2863 140.912 81.2785 140.553 81.7738 139.925C82.2691 139.297 86.9257 133.685 85.9 131.002C84.8743 128.319 79.4026 130.827 78.5719 131.002C77.7412 131.178 77.7919 130.366 78.0103 129.922C78.2287 129.477 80.9236 124.462 82.2301 122.231C83.5366 120 83.7589 118.187 82.5031 117.161C81.2473 116.135 79.2037 117.855 78.0649 118.273C76.9261 118.69 76.6687 117.173 76.6687 117.173C76.6687 117.173 77.0002 113.429 76.5907 106.51C76.1812 99.5915 73.0573 100.145 73.0573 100.145" fill="#EBEBEB"/>
<path d="M73.3538 106.35C73.3568 106.398 73.3568 106.446 73.3538 106.494C73.3538 106.6 73.3538 106.74 73.385 106.919C73.4123 107.309 73.4474 107.852 73.4981 108.557C73.5917 109.977 73.7126 112.036 73.853 114.575C74.1338 119.645 74.4653 126.689 74.8046 134.465C75.1439 142.242 75.4559 149.258 75.7094 154.355C75.8381 156.89 75.9434 158.949 76.0175 160.377C76.0526 161.083 76.0799 161.633 76.0994 162.015C76.0994 162.194 76.0994 162.338 76.0994 162.44C76.102 162.488 76.102 162.536 76.0994 162.584C76.0994 162.584 76.0994 162.537 76.0994 162.44C76.0994 162.342 76.0994 162.198 76.0682 162.015C76.0409 161.625 76.0019 161.087 75.9551 160.381C75.8615 158.961 75.7406 156.902 75.6002 154.359C75.3155 149.289 74.9879 142.25 74.6486 134.469C74.3093 126.689 73.9973 119.68 73.7399 114.579C73.6112 112.04 73.5059 109.985 73.4357 108.557C73.4006 107.852 73.3733 107.302 73.3538 106.919C73.3538 106.736 73.3538 106.596 73.3538 106.494C73.3538 106.393 73.3538 106.35 73.3538 106.35Z" fill="#E0E0E0"/>
<path d="M68.541 120.242C68.6337 120.303 68.7188 120.375 68.7945 120.456C68.9544 120.6 69.1845 120.815 69.4497 121.084C69.9918 121.622 70.725 122.387 71.5167 123.245L73.533 125.452L74.1453 126.115C74.2278 126.191 74.2999 126.278 74.3598 126.372C74.2668 126.312 74.1805 126.241 74.1024 126.162C73.9464 126.014 73.7124 125.799 73.4511 125.526C72.9129 124.984 72.1836 124.212 71.4036 123.354L69.3717 121.162L68.7555 120.499C68.6723 120.424 68.6001 120.337 68.541 120.242V120.242Z" fill="#E0E0E0"/>
<path d="M74.7693 126.236C74.7381 126.205 76.2474 124.625 78.135 122.726C80.0226 120.827 81.5865 119.278 81.6177 119.31C81.6489 119.341 80.1396 120.92 78.2481 122.82C76.3566 124.719 74.8005 126.267 74.7693 126.236Z" fill="#E0E0E0"/>
<path d="M74.7537 138.182C74.8407 138.109 74.9363 138.048 75.0384 137.998L75.8457 137.546C76.5282 137.156 77.4642 136.633 78.4782 136.009C79.4922 135.385 80.3931 134.793 81.0405 134.36L81.8205 133.849C81.9103 133.778 82.0086 133.719 82.113 133.673C82.036 133.757 81.9496 133.832 81.8556 133.896C81.684 134.032 81.4305 134.223 81.1146 134.453C80.4789 134.91 79.5858 135.522 78.5679 136.142C77.55 136.762 76.6179 137.285 75.9081 137.644C75.5571 137.819 75.2763 137.959 75.0774 138.053C74.9739 138.106 74.8655 138.149 74.7537 138.182V138.182Z" fill="#E0E0E0"/>
<path d="M67.9248 134.001C68.0252 134.032 68.121 134.077 68.2095 134.134C68.3889 134.227 68.6424 134.371 68.9583 134.551C69.5823 134.906 70.4442 135.409 71.3919 135.97C72.3396 136.532 73.1898 137.051 73.8021 137.433L74.5236 137.889C74.6162 137.94 74.7014 138.003 74.7771 138.076C74.6776 138.043 74.5821 137.998 74.4924 137.944C74.3169 137.846 74.0595 137.706 73.7475 137.527C73.1196 137.172 72.2577 136.669 71.31 136.107C70.3623 135.545 69.5121 135.027 68.8998 134.644L68.1783 134.196C68.0861 134.142 68.001 134.076 67.9248 134.001V134.001Z" fill="#E0E0E0"/>
<path d="M66.5715 144.542C66.696 144.59 66.8161 144.649 66.9303 144.718L67.8936 145.248C68.7009 145.701 69.8124 146.336 71.0136 147.046C72.2148 147.756 73.3341 148.403 74.1336 148.883L75.0696 149.456C75.1868 149.522 75.2978 149.597 75.4011 149.683C75.2733 149.64 75.1514 149.581 75.0384 149.507L74.079 148.981C73.2717 148.528 72.1641 147.893 70.959 147.183C69.7539 146.473 68.6385 145.822 67.839 145.346L66.9069 144.773C66.786 144.71 66.6733 144.633 66.5715 144.542V144.542Z" fill="#E0E0E0"/>
<path d="M75.2295 149.504C75.3387 149.409 75.4592 149.327 75.5883 149.262L76.5867 148.653C77.433 148.135 78.5991 147.421 79.8627 146.594C81.1263 145.767 82.2573 144.995 83.0724 144.43L84.0357 143.763C84.1464 143.671 84.2683 143.594 84.3984 143.533C84.2983 143.635 84.1886 143.728 84.0708 143.81C83.8524 143.985 83.5326 144.227 83.1348 144.523C82.3548 145.112 81.2199 145.904 79.9524 146.727C78.6849 147.55 77.5071 148.256 76.6452 148.747C76.2123 148.993 75.8652 149.188 75.6156 149.316C75.492 149.389 75.3629 149.451 75.2295 149.504Z" fill="#E0E0E0"/>
<path d="M81.4229 156.617H70.0193L73.7399 184.791H77.7023L81.4229 156.617Z" fill="#E0E0E0"/>
<path d="M70.6238 160.08C70.6238 160.08 70.6238 160.119 70.6823 160.178C70.7574 160.265 70.8523 160.333 70.9592 160.377C71.1582 160.444 71.37 160.466 71.5787 160.441C71.7875 160.415 71.9876 160.342 72.1643 160.228C72.6245 159.975 73.0262 159.476 73.6424 159.253C74.3271 159.034 75.0654 159.049 75.7406 159.296C76.426 159.532 77.0807 159.849 77.6906 160.24C78.1966 160.564 78.7244 160.854 79.2701 161.106C79.6428 161.272 80.0364 161.386 80.4401 161.445C80.5499 161.461 80.6607 161.468 80.7716 161.469C80.8457 161.469 80.8847 161.469 80.8847 161.469C80.3452 161.385 79.8201 161.226 79.3247 160.997C78.789 160.733 78.2682 160.44 77.7647 160.119C77.1468 159.711 76.4798 159.382 75.7796 159.14C75.0652 158.881 74.2841 158.873 73.5644 159.117C73.261 159.241 72.9803 159.415 72.7337 159.632C72.527 159.815 72.3081 159.985 72.0785 160.139C71.919 160.249 71.7372 160.324 71.5459 160.357C71.3545 160.39 71.1583 160.381 70.9709 160.33C70.8403 160.27 70.7224 160.185 70.6238 160.08V160.08Z" fill="#F5F5F5"/>
<path d="M71.0137 165.267C71.0137 165.267 71.1034 165.15 71.2789 164.967C71.5384 164.711 71.8495 164.513 72.1915 164.386C72.6996 164.202 73.2391 164.121 73.7788 164.148C74.444 164.199 75.1056 164.291 75.76 164.421C76.4294 164.55 77.1143 164.577 77.7919 164.503C78.3449 164.432 78.884 164.278 79.3909 164.047C79.7384 163.893 80.068 163.703 80.3737 163.477C80.4884 163.401 80.5909 163.307 80.6779 163.2C80.2559 163.472 79.8154 163.715 79.3597 163.926C78.8603 164.127 78.3352 164.259 77.7997 164.316C77.1381 164.38 76.4705 164.347 75.8185 164.218C75.1556 164.087 74.4845 164.001 73.81 163.961C73.2486 163.943 72.6896 164.041 72.1681 164.249C71.8156 164.389 71.5024 164.613 71.2555 164.901C71.1898 164.98 71.1311 165.065 71.08 165.154C71.0371 165.232 71.0137 165.263 71.0137 165.267Z" fill="#F5F5F5"/>
<path d="M80.1319 168.044C80.0371 167.972 79.9301 167.918 79.816 167.884C79.5134 167.77 79.1953 167.701 78.8723 167.681C78.3949 167.65 77.9154 167.677 77.4448 167.763C76.9105 167.849 76.3411 167.993 75.7444 168.122C75.1872 168.253 74.6164 168.317 74.0441 168.313C73.58 168.301 73.1223 168.201 72.6947 168.021C72.3036 167.834 71.9556 167.569 71.6729 167.241C71.7176 167.351 71.7838 167.452 71.8679 167.537C72.0846 167.784 72.3502 167.983 72.6479 168.122C73.0854 168.329 73.5603 168.446 74.0441 168.465C74.6304 168.48 75.2163 168.42 75.7874 168.286C76.3957 168.157 76.9574 168.005 77.48 167.896C77.9382 167.805 78.4051 167.764 78.8723 167.775C79.3014 167.814 79.7243 167.904 80.1319 168.044V168.044Z" fill="#F5F5F5"/>
<path d="M72.0354 171.952C72.3846 171.803 72.7714 171.765 73.143 171.843C73.5481 171.941 73.9407 172.085 74.313 172.272C74.7843 172.5 75.293 172.642 75.8145 172.689C76.7683 172.771 77.7235 172.55 78.5445 172.057C78.7819 171.907 79.0028 171.732 79.2036 171.535C79.3401 171.387 79.4142 171.301 79.4025 171.293C79.1008 171.527 78.7857 171.743 78.4587 171.94C77.6524 172.385 76.7321 172.581 75.8145 172.502C74.7342 172.44 73.9035 171.796 73.1547 171.722C72.8668 171.673 72.571 171.7 72.2967 171.8C72.1095 171.862 72.0276 171.948 72.0354 171.952Z" fill="#F5F5F5"/>
<path d="M72.6712 177.361C72.9986 177.369 73.3238 177.304 73.6228 177.17C74.1961 176.979 74.902 176.542 75.7327 176.211C76.1189 176.056 76.5295 175.97 76.9456 175.957C77.2819 175.957 77.6139 176.033 77.9167 176.18C78.1942 176.327 78.4354 176.535 78.6226 176.788C78.6072 176.699 78.5697 176.616 78.5134 176.546C78.3755 176.345 78.1925 176.18 77.9791 176.063C77.6622 175.888 77.3075 175.793 76.9456 175.786C76.5068 175.787 76.0724 175.873 75.6664 176.039C74.8084 176.378 74.1064 176.819 73.5721 177.049C73.0378 177.279 72.6673 177.33 72.6712 177.361Z" fill="#F5F5F5"/>
<path d="M73.2288 179.877C73.4573 179.988 73.7001 180.066 73.9503 180.111C74.5443 180.254 75.1477 180.356 75.756 180.415C76.3637 180.475 76.9748 180.493 77.5851 180.469C77.8402 180.474 78.0947 180.444 78.3417 180.38C78.3417 180.321 77.1717 180.38 75.7755 180.232C74.3793 180.083 73.2444 179.826 73.2288 179.877Z" fill="#F5F5F5"/>
<path d="M233.359 184.334C233.359 184.393 194.546 184.436 146.681 184.436C98.8167 184.436 60 184.393 60 184.334C60 184.276 98.8011 184.233 146.681 184.233C194.562 184.233 233.359 184.28 233.359 184.334Z" fill="#263238"/>
<path d="M108.984 62.4359C108.984 62.4359 110.045 56.075 110.298 55.5914C110.552 55.1078 113.481 52.136 113.828 52.0814C114.175 52.0268 118.797 50.5682 118.539 51.3014C118.282 52.0346 115.029 52.994 115.029 52.994L114.721 53.384C114.721 53.384 117.494 52.4792 118.18 52.5026C118.867 52.526 118.929 53.1851 118.434 53.3723C117.939 53.5595 115.497 54.2732 115.404 54.4292C115.31 54.5852 118.134 53.7779 118.477 53.7935C118.953 53.813 119.296 54.4136 118.812 54.6203C118.524 54.7373 115.809 55.3613 115.809 55.3613C116.646 55.2513 117.488 55.1862 118.332 55.1663C118.75 55.2794 118.722 55.7864 118.254 55.9073C117.939 55.9892 116.281 56.0633 115.86 56.1764C115.86 56.1764 115.544 56.4416 115.556 57.284C115.567 58.1264 114.475 60.3611 114.475 60.3611L108.984 62.4359Z" fill="#FFBE9D"/>
<path d="M118.535 51.2821C118.349 51.5204 118.119 51.7204 117.857 51.871C117.583 52.0554 117.293 52.2147 116.991 52.3468C116.648 52.4755 116.266 52.6081 115.868 52.7368L115.014 53.0254L115.06 52.9981C114.573 53.5262 114.045 54.0152 113.481 54.4606C113.915 53.8914 114.392 53.3568 114.908 52.8616V52.8421H114.936L115.778 52.5457L116.897 52.1557C117.193 52.0356 117.48 51.8949 117.755 51.7345C118.247 51.4732 118.516 51.2548 118.535 51.2821Z" fill="#EB996E"/>
<path d="M180.112 132.293L117.159 125.807C116.236 125.709 115.39 125.249 114.805 124.528C114.22 123.808 113.945 122.885 114.039 121.961L124.931 16.1233C125.068 14.8109 125.72 13.6064 126.743 12.7737C127.767 11.941 129.079 11.5481 130.391 11.6812L190.42 17.8627C191.732 17.9995 192.937 18.651 193.77 19.6745C194.602 20.698 194.995 22.01 194.862 23.3227L183.942 129.161C183.847 130.083 183.39 130.929 182.673 131.516C181.955 132.103 181.035 132.382 180.112 132.293Z" fill="#031D44"/>
<path opacity="0.4" d="M180.112 132.293L117.159 125.807C116.236 125.709 115.39 125.249 114.805 124.528C114.22 123.808 113.945 122.885 114.039 121.961L124.931 16.1233C125.068 14.8109 125.72 13.6064 126.743 12.7737C127.767 11.941 129.079 11.5481 130.391 11.6812L190.42 17.8627C191.732 17.9995 192.937 18.651 193.77 19.6745C194.602 20.698 194.995 22.01 194.862 23.3227L183.942 129.161C183.847 130.083 183.39 130.929 182.673 131.516C181.955 132.103 181.035 132.382 180.112 132.293Z" fill="black"/>
<path d="M173.759 131.638L110.794 125.156C109.87 125.057 109.023 124.597 108.439 123.876C107.854 123.154 107.579 122.23 107.674 121.306L118.594 15.4683C118.66 14.818 118.855 14.1873 119.165 13.6122C119.476 13.037 119.896 12.5287 120.404 12.1162C120.911 11.7037 121.494 11.3951 122.12 11.2081C122.746 11.021 123.403 10.9592 124.054 11.0262L184.067 17.196C184.717 17.2627 185.348 17.4569 185.923 17.7674C186.498 18.078 187.006 18.4987 187.419 19.0058C187.831 19.5128 188.14 20.0961 188.327 20.7224C188.514 21.3487 188.576 22.0058 188.509 22.656L177.589 128.498C177.495 129.421 177.04 130.27 176.322 130.858C175.604 131.447 174.683 131.727 173.759 131.638Z" fill="#031D44"/>
<path d="M141.752 102.829L120.042 100.593C119.524 100.54 119.06 100.917 119.007 101.435L118.127 109.978C118.073 110.497 118.45 110.96 118.969 111.014L140.679 113.249C141.197 113.303 141.661 112.926 141.714 112.407L142.594 103.865C142.647 103.346 142.27 102.882 141.752 102.829Z" fill="#031D44"/>
<g opacity="0.4">
<path opacity="0.4" d="M141.752 102.829L120.042 100.593C119.524 100.54 119.06 100.917 119.007 101.435L118.127 109.978C118.073 110.497 118.45 110.96 118.969 111.014L140.679 113.249C141.197 113.303 141.661 112.926 141.714 112.407L142.594 103.865C142.647 103.346 142.27 102.882 141.752 102.829Z" fill="black"/>
</g>
<path d="M122.964 22.8586L120.548 46.3101L180.331 52.4669L182.746 29.0155L122.964 22.8586Z" fill="#FAFAFA"/>
<path d="M180.335 52.4675C180.335 52.4675 180.335 52.3232 180.37 52.0502C180.405 51.7772 180.436 51.3677 180.487 50.8373C180.592 49.7687 180.748 48.2009 180.951 46.1768C181.341 42.1325 181.945 36.2786 182.679 29.0168L182.741 29.0948L122.958 22.9601L123.071 22.8704C122.225 31.0604 121.406 38.9969 120.649 46.3211L120.563 46.2119L163.405 50.6735L175.846 51.98L179.18 52.3388L180.042 52.4324L180.339 52.4675C180.339 52.4675 180.241 52.4675 180.05 52.4441L179.2 52.3622L175.885 52.0346L163.444 50.7827L120.544 46.4069H120.446V46.3133C121.199 38.9852 122.006 31.0604 122.856 22.8587V22.7573H122.958L182.757 28.9466H182.827V29.0168C182.047 36.2981 181.442 42.1676 181.017 46.2197C180.803 48.2321 180.627 49.796 180.522 50.8568C180.463 51.3833 180.42 51.785 180.389 52.058L180.335 52.4675Z" fill="#263238"/>
<path d="M132.281 56.9643L123.735 56.0841C123.289 56.0382 122.891 56.3623 122.845 56.8079L121.965 65.3544C121.919 65.8001 122.243 66.1985 122.689 66.2444L131.235 67.1246C131.681 67.1705 132.079 66.8464 132.125 66.4008L133.005 57.8543C133.051 57.4086 132.727 57.0102 132.281 56.9643Z" fill="#031D44"/>
<g opacity="0.4">
<path opacity="0.4" d="M132.281 56.9643L123.735 56.0841C123.289 56.0382 122.891 56.3623 122.845 56.8079L121.965 65.3544C121.919 65.8001 122.243 66.1986 122.689 66.2444L131.235 67.1246C131.681 67.1705 132.079 66.8465 132.125 66.4008L133.005 57.8543C133.051 57.4086 132.727 57.0102 132.281 56.9643Z" fill="black"/>
</g>
<path d="M130.715 56.8041L122.168 55.9239C121.723 55.878 121.324 56.2021 121.278 56.6478L120.398 65.1942C120.352 65.6399 120.676 66.0384 121.122 66.0843L129.668 66.9645C130.114 67.0104 130.513 66.6863 130.558 66.2406L131.439 57.6941C131.484 57.2485 131.16 56.85 130.715 56.8041Z" fill="#263238"/>
<path d="M126.854 59.3591L126.421 63.6062L125.438 63.5048L125.793 60.0572L124.947 59.9675L125.029 59.1875L126.854 59.3591Z" fill="white"/>
<path d="M146.452 58.4271L137.905 57.547C137.46 57.5011 137.061 57.8251 137.015 58.2708L136.135 66.8173C136.089 67.2629 136.413 67.6614 136.859 67.7073L145.405 68.5875C145.851 68.6334 146.25 68.3093 146.295 67.8637L147.176 59.3172C147.222 58.8715 146.897 58.473 146.452 58.4271Z" fill="#031D44"/>
<g opacity="0.4">
<path opacity="0.4" d="M146.452 58.4271L137.905 57.547C137.46 57.5011 137.061 57.8251 137.015 58.2708L136.135 66.8173C136.089 67.2629 136.413 67.6614 136.859 67.7073L145.405 68.5875C145.851 68.6334 146.25 68.3093 146.295 67.8637L147.176 59.3172C147.222 58.8715 146.897 58.473 146.452 58.4271Z" fill="black"/>
</g>
<path d="M144.882 58.2636L136.335 57.3834C135.89 57.3375 135.491 57.6616 135.445 58.1072L134.565 66.6537C134.519 67.0994 134.843 67.4979 135.289 67.5438L143.835 68.4239C144.281 68.4698 144.679 68.1458 144.725 67.7001L145.606 59.1536C145.651 58.708 145.327 58.3095 144.882 58.2636Z" fill="#263238"/>
<path d="M142.201 64.413L142.119 65.193L138.921 64.8654L138.987 64.2297L140.777 62.853C141.19 62.5371 141.28 62.3265 141.3 62.1198C141.335 61.7883 141.124 61.5699 140.676 61.5231C140.506 61.4992 140.334 61.5173 140.174 61.5758C140.013 61.6343 139.869 61.7314 139.755 61.8585L139.088 61.3242C139.309 61.0844 139.585 60.9029 139.893 60.796C140.2 60.6892 140.53 60.6603 140.851 60.7119C141.795 60.8094 142.376 61.3554 142.294 62.1237C142.255 62.5371 142.099 62.9037 141.452 63.3873L140.383 64.2063L142.201 64.413Z" fill="white"/>
<path d="M161.141 59.9398L152.595 59.0597C152.149 59.0138 151.75 59.3378 151.704 59.7835L150.824 68.33C150.778 68.7756 151.102 69.1741 151.548 69.22L160.095 70.1002C160.54 70.1461 160.939 69.822 160.985 69.3764L161.865 60.8299C161.911 60.3842 161.587 59.9857 161.141 59.9398Z" fill="#031D44"/>
<g opacity="0.4">
<path opacity="0.4" d="M161.141 59.9398L152.595 59.0597C152.149 59.0138 151.75 59.3378 151.704 59.7835L150.824 68.33C150.778 68.7757 151.102 69.1741 151.548 69.22L160.095 70.1002C160.54 70.1461 160.939 69.822 160.985 69.3764L161.865 60.8299C161.911 60.3842 161.587 59.9857 161.141 59.9398Z" fill="black"/>
</g>
<path d="M159.575 59.7763L151.028 58.8961C150.583 58.8502 150.184 59.1743 150.138 59.6199L149.258 68.1664C149.212 68.6121 149.536 69.0105 149.982 69.0564L158.528 69.9366C158.974 69.9825 159.373 69.6585 159.419 69.2128L160.299 60.6663C160.345 60.2207 160.021 59.8222 159.575 59.7763Z" fill="#263238"/>
<path d="M156.907 65.4235C156.833 66.1372 156.217 66.7339 155.012 66.613C154.443 66.5618 153.901 66.3464 153.452 65.9929L153.908 65.2792C154.235 65.5673 154.645 65.7447 155.078 65.7862C155.57 65.8369 155.893 65.6692 155.928 65.3221C155.963 64.975 155.745 64.78 155.191 64.7215L154.743 64.6747L154.809 64.0273L155.78 63.1303L153.978 62.947L154.06 62.167L157.024 62.4712L156.958 63.1069L155.889 64.0975C156.197 64.1449 156.475 64.3092 156.664 64.5562C156.854 64.8033 156.941 65.1139 156.907 65.4235V65.4235Z" fill="white"/>
<path d="M175.834 61.4525L167.287 60.5724C166.842 60.5265 166.443 60.8505 166.397 61.2962L165.517 69.8427C165.471 70.2884 165.795 70.6868 166.241 70.7327L174.788 71.6129C175.233 71.6588 175.632 71.3347 175.678 70.8891L176.558 62.3426C176.604 61.8969 176.28 61.4984 175.834 61.4525Z" fill="#031D44"/>
<g opacity="0.4">
<path opacity="0.4" d="M175.834 61.4525L167.287 60.5724C166.842 60.5265 166.443 60.8505 166.397 61.2962L165.517 69.8427C165.471 70.2884 165.795 70.6868 166.241 70.7327L174.788 71.6129C175.233 71.6588 175.632 71.3347 175.678 70.8891L176.558 62.3426C176.604 61.8969 176.28 61.4984 175.834 61.4525Z" fill="black"/>
</g>
<path d="M174.299 61.2885L165.752 60.4083C165.307 60.3624 164.908 60.6865 164.862 61.1321L163.982 69.6786C163.936 70.1243 164.26 70.5228 164.706 70.5687L173.252 71.4488C173.698 71.4947 174.096 71.1707 174.142 70.725L175.023 62.1785C175.068 61.7329 174.744 61.3344 174.299 61.2885Z" fill="#263238"/>
<path d="M167.201 65.3332L167.161 65.7212L171.7 66.1886L171.74 65.8007L167.201 65.3332Z" fill="white"/>
<path d="M170.397 63.8633C170.383 64.0091 170.325 64.1473 170.232 64.2605C170.139 64.3736 170.014 64.4566 169.874 64.4988C169.734 64.5411 169.584 64.5408 169.444 64.498C169.304 64.4552 169.179 64.3718 169.086 64.2583C168.994 64.1448 168.937 64.0063 168.923 63.8604C168.909 63.7145 168.938 63.5678 169.007 63.4386C169.077 63.3095 169.183 63.2039 169.312 63.1351C169.442 63.0663 169.589 63.0374 169.734 63.0521C169.93 63.0718 170.11 63.1683 170.234 63.3204C170.358 63.4725 170.417 63.6678 170.397 63.8633Z" fill="white"/>
<path d="M169.988 67.8217C169.973 67.9677 169.916 68.106 169.822 68.2191C169.729 68.3323 169.604 68.4151 169.463 68.4572C169.323 68.4993 169.173 68.4987 169.033 68.4555C168.892 68.4123 168.768 68.3285 168.676 68.2146C168.583 68.1007 168.527 67.962 168.513 67.8159C168.499 67.6698 168.529 67.523 168.599 67.394C168.669 67.265 168.776 67.1597 168.906 67.0915C169.036 67.0232 169.183 66.995 169.329 67.0105C169.524 67.0311 169.702 67.1281 169.826 67.2801C169.949 67.4321 170.008 67.6268 169.988 67.8217V67.8217Z" fill="white"/>
<path d="M130.749 71.8529L122.202 70.9728C121.757 70.9269 121.358 71.2509 121.312 71.6966L120.432 80.2431C120.386 80.6887 120.71 81.0872 121.156 81.1331L129.702 82.0133C130.148 82.0592 130.546 81.7351 130.592 81.2895L131.473 72.743C131.518 72.2973 131.194 71.8988 130.749 71.8529Z" fill="#031D44"/>
<g opacity="0.4">
<path opacity="0.4" d="M130.749 71.8529L122.202 70.9728C121.757 70.9269 121.358 71.2509 121.312 71.6966L120.432 80.2431C120.386 80.6887 120.71 81.0872 121.156 81.1331L129.702 82.0133C130.148 82.0592 130.546 81.7351 130.592 81.2895L131.473 72.743C131.518 72.2973 131.194 71.8988 130.749 71.8529Z" fill="black"/>
</g>
<path d="M129.182 71.6933L120.636 70.8131C120.19 70.7672 119.792 71.0913 119.746 71.5369L118.866 80.0834C118.82 80.5291 119.144 80.9276 119.589 80.9735L128.136 81.8536C128.582 81.8995 128.98 81.5755 129.026 81.1298L129.906 72.5833C129.952 72.1376 129.628 71.7392 129.182 71.6933Z" fill="#263238"/>
<path d="M126.214 77.716L125.524 77.6458L125.431 78.535L124.475 78.4375L124.569 77.5483L122.287 77.3104L122.353 76.6513L124.627 74.1709L125.657 74.2801L123.543 76.6201L124.682 76.7371L124.764 75.9571L125.688 76.0507L125.606 76.8307L126.296 76.9009L126.214 77.716Z" fill="white"/>
<path d="M144.919 73.3124L136.373 72.4322C135.927 72.3863 135.529 72.7104 135.483 73.1561L134.603 81.7025C134.557 82.1482 134.881 82.5467 135.326 82.5926L143.873 83.4728C144.319 83.5187 144.717 83.1946 144.763 82.7489L145.643 74.2024C145.689 73.7568 145.365 73.3583 144.919 73.3124Z" fill="#031D44"/>
<g opacity="0.4">
<path opacity="0.4" d="M144.919 73.3124L136.373 72.4322C135.927 72.3863 135.529 72.7104 135.483 73.1561L134.603 81.7025C134.557 82.1482 134.881 82.5467 135.326 82.5926L143.873 83.4728C144.319 83.5187 144.717 83.1946 144.763 82.7489L145.643 74.2024C145.689 73.7568 145.365 73.3583 144.919 73.3124Z" fill="black"/>
</g>
<path d="M143.353 73.1488L134.807 72.2687C134.361 72.2228 133.963 72.5468 133.917 72.9925L133.036 81.539C132.991 81.9846 133.315 82.3831 133.76 82.429L142.307 83.3092C142.752 83.3551 143.151 83.031 143.197 82.5854L144.077 74.0389C144.123 73.5932 143.799 73.1947 143.353 73.1488Z" fill="#263238"/>
<path d="M140.254 78.7185C140.18 79.4673 139.56 80.064 138.351 79.9392C137.782 79.8874 137.241 79.6721 136.791 79.3191L137.255 78.6093C137.582 78.8976 137.992 79.0739 138.425 79.1124C138.917 79.1631 139.24 78.9915 139.276 78.6444C139.311 78.2973 139.116 78.0711 138.347 77.9931L137.263 77.88L137.727 75.54L140.309 75.8052L140.231 76.5852L138.464 76.4019L138.312 77.2014L138.659 77.2365C139.896 77.3535 140.332 77.9658 140.254 78.7185Z" fill="white"/>
<path d="M159.612 74.8251L151.066 73.9449C150.62 73.899 150.222 74.2231 150.176 74.6687L149.296 83.2153C149.25 83.6609 149.574 84.0594 150.019 84.1053L158.566 84.9855C159.011 85.0314 159.41 84.7073 159.456 84.2616L160.336 75.7151C160.382 75.2695 160.058 74.871 159.612 74.8251Z" fill="#031D44"/>
<g opacity="0.4">
<path opacity="0.4" d="M159.612 74.8251L151.066 73.9449C150.62 73.899 150.222 74.2231 150.176 74.6687L149.296 83.2152C149.25 83.6609 149.574 84.0594 150.019 84.1053L158.566 84.9855C159.011 85.0314 159.41 84.7073 159.456 84.2616L160.336 75.7151C160.382 75.2695 160.058 74.871 159.612 74.8251Z" fill="black"/>
</g>
<path d="M158.042 74.6615L149.496 73.7813C149.05 73.7354 148.652 74.0595 148.606 74.5052L147.725 83.0517C147.68 83.4973 148.004 83.8958 148.449 83.9417L156.996 84.8219C157.441 84.8678 157.84 84.5437 157.886 84.0981L158.766 75.5516C158.812 75.1059 158.488 74.7074 158.042 74.6615Z" fill="#263238"/>
<path d="M155.254 80.2551C155.164 81.1209 154.4 81.5928 153.507 81.4992C152.337 81.3783 151.689 80.571 151.83 79.206C151.982 77.7396 152.949 77.0142 154.224 77.1468C154.638 77.1783 155.035 77.3212 155.375 77.5602L154.938 78.2427C154.713 78.068 154.442 77.9647 154.158 77.9463C153.448 77.8761 152.953 78.2466 152.84 79.0539C152.993 78.9394 153.169 78.8567 153.355 78.8105C153.541 78.7643 153.734 78.7555 153.924 78.7848C154.11 78.7867 154.294 78.8272 154.464 78.9036C154.633 78.98 154.786 79.0908 154.91 79.2289C155.035 79.367 155.13 79.5295 155.189 79.7061C155.249 79.8827 155.27 80.0696 155.254 80.2551V80.2551ZM154.298 80.2044C154.308 80.1137 154.299 80.0219 154.27 79.9352C154.242 79.8484 154.195 79.7688 154.134 79.7016C154.072 79.6343 153.997 79.5811 153.913 79.5454C153.829 79.5097 153.738 79.4924 153.647 79.4946C153.557 79.4755 153.465 79.4751 153.375 79.4934C153.285 79.5118 153.2 79.5484 153.125 79.6012C153.05 79.6539 152.986 79.7215 152.939 79.7998C152.891 79.878 152.86 79.9653 152.847 80.0562C152.808 80.4189 153.054 80.7114 153.526 80.7621C153.613 80.78 153.703 80.7794 153.79 80.7605C153.877 80.7415 153.958 80.7046 154.03 80.652C154.102 80.5995 154.162 80.5325 154.206 80.4554C154.25 80.3783 154.277 80.2928 154.286 80.2044H154.298Z" fill="white"/>
<path d="M174.298 76.3373L165.751 75.4571C165.305 75.4112 164.907 75.7353 164.861 76.1809L163.981 84.7274C163.935 85.1731 164.259 85.5716 164.705 85.6175L173.251 86.4977C173.697 86.5436 174.095 86.2195 174.141 85.7738L175.021 77.2273C175.067 76.7817 174.743 76.3832 174.298 76.3373Z" fill="#031D44"/>
<g opacity="0.4">
<path opacity="0.4" d="M174.298 76.3373L165.751 75.4571C165.305 75.4112 164.907 75.7353 164.861 76.1809L163.981 84.7274C163.935 85.1731 164.259 85.5716 164.705 85.6175L173.251 86.4977C173.697 86.5436 174.095 86.2195 174.141 85.7738L175.021 77.2273C175.067 76.7817 174.743 76.3832 174.298 76.3373Z" fill="black"/>
</g>
<path d="M172.731 76.1737L164.185 75.2936C163.739 75.2477 163.341 75.5717 163.295 76.0174L162.415 84.5639C162.369 85.0095 162.693 85.408 163.138 85.4539L171.685 86.3341C172.131 86.38 172.529 86.0559 172.575 85.6103L173.455 77.0638C173.501 76.6181 173.177 76.2196 172.731 76.1737Z" fill="#263238"/>
<path d="M169.601 79.2511L166.019 82.0767L166.26 82.3829L169.843 79.5573L169.601 79.2511Z" fill="white"/>
<path d="M166.647 78.94L166.344 79.186L169.223 82.7261L169.526 82.4801L166.647 78.94Z" fill="white"/>
<path d="M129.228 86.619L120.682 85.7389C120.236 85.693 119.838 86.017 119.792 86.4627L118.912 95.0092C118.866 95.4548 119.19 95.8533 119.636 95.8992L128.182 96.7794C128.628 96.8253 129.026 96.5012 129.072 96.0556L129.952 87.5091C129.998 87.0634 129.674 86.6649 129.228 86.619Z" fill="#031D44"/>
<g opacity="0.4">
<path opacity="0.4" d="M129.228 86.619L120.682 85.7389C120.236 85.693 119.838 86.017 119.792 86.4627L118.912 95.0092C118.866 95.4548 119.19 95.8533 119.636 95.8992L128.182 96.7794C128.628 96.8253 129.026 96.5012 129.072 96.0556L129.952 87.5091C129.998 87.0634 129.674 86.6649 129.228 86.619Z" fill="black"/>
</g>
<path d="M127.662 86.4589L119.116 85.5787C118.67 85.5328 118.271 85.8569 118.225 86.3025L117.345 94.849C117.299 95.2947 117.623 95.6932 118.069 95.7391L126.616 96.6193C127.061 96.6651 127.46 96.3411 127.506 95.8954L128.386 87.3489C128.432 86.9033 128.108 86.5048 127.662 86.4589Z" fill="#263238"/>
<path d="M124.475 89.0771L124.409 89.7128L122.459 93.1526L121.394 93.0395L123.266 89.7596L121.862 89.6153L121.792 90.3056L120.918 90.2159L121.074 88.73L124.475 89.0771Z" fill="white"/>
<path d="M143.399 88.078L134.853 87.1978C134.407 87.152 134.008 87.476 133.963 87.9217L133.082 96.4682C133.036 96.9138 133.361 97.3123 133.806 97.3582L142.353 98.2384C142.798 98.2843 143.197 97.9602 143.243 97.5146L144.123 88.9681C144.169 88.5224 143.845 88.1239 143.399 88.078Z" fill="#031D44"/>
<g opacity="0.4">
<path opacity="0.4" d="M143.399 88.078L134.853 87.1978C134.407 87.152 134.008 87.476 133.963 87.9217L133.082 96.4682C133.036 96.9138 133.361 97.3123 133.806 97.3582L142.353 98.2384C142.798 98.2843 143.197 97.9602 143.243 97.5146L144.123 88.9681C144.169 88.5224 143.845 88.1239 143.399 88.078Z" fill="black"/>
</g>
<path d="M141.829 87.9145L133.283 87.0343C132.837 86.9884 132.438 87.3124 132.392 87.7581L131.512 96.3046C131.466 96.7503 131.79 97.1487 132.236 97.1946L140.783 98.0748C141.228 98.1207 141.627 97.7966 141.673 97.351L142.553 88.8045C142.599 88.3588 142.275 87.9604 141.829 87.9145Z" fill="#263238"/>
<path d="M139.069 93.6359C138.987 94.4159 138.223 94.8644 137.146 94.7513C136.07 94.6382 135.418 94.0649 135.5 93.2693C135.519 93.0578 135.599 92.8564 135.732 92.6906C135.864 92.5247 136.043 92.4018 136.245 92.3372C136.104 92.2321 135.993 92.0909 135.924 91.9283C135.855 91.7657 135.832 91.5877 135.855 91.4129C135.933 90.668 136.635 90.2741 137.606 90.3716C138.577 90.4691 139.198 91.0073 139.123 91.7522C139.108 91.9289 139.045 92.0982 138.941 92.2423C138.837 92.3863 138.697 92.4999 138.535 92.5712C138.719 92.6763 138.867 92.8335 138.962 93.0229C139.057 93.2123 139.094 93.4255 139.069 93.6359V93.6359ZM138.078 93.5033C138.117 93.1133 137.833 92.8676 137.345 92.8169C136.858 92.7662 136.534 92.9651 136.495 93.3395C136.456 93.7139 136.733 93.983 137.22 94.0337C137.708 94.0844 138.043 93.8621 138.094 93.4877L138.078 93.5033ZM136.815 91.5533C136.78 91.8731 137.014 92.0993 137.411 92.1422C137.809 92.1851 138.098 92.0096 138.133 91.6898C138.168 91.37 137.922 91.1282 137.521 91.0892C137.119 91.0502 136.846 91.2101 136.815 91.5416V91.5533Z" fill="white"/>
<path d="M158.088 89.5907L149.542 88.7105C149.096 88.6646 148.697 88.9887 148.652 89.4344L147.771 97.9809C147.725 98.4265 148.05 98.825 148.495 98.8709L157.042 99.7511C157.487 99.797 157.886 99.4729 157.932 99.0273L158.812 90.4808C158.858 90.0351 158.534 89.6366 158.088 89.5907Z" fill="#031D44"/>
<g opacity="0.4">
<path opacity="0.4" d="M158.088 89.5907L149.542 88.7105C149.096 88.6646 148.697 88.9887 148.652 89.4344L147.771 97.9809C147.725 98.4265 148.05 98.825 148.495 98.8709L157.042 99.7511C157.487 99.797 157.886 99.4729 157.932 99.0273L158.812 90.4808C158.858 90.0351 158.534 89.6366 158.088 89.5907Z" fill="black"/>
</g>
<path d="M156.236 88.7435L147.73 87.8843C147.287 87.8395 146.891 88.1628 146.846 88.6063L145.987 97.1121C145.942 97.5556 146.265 97.9515 146.709 97.9963L155.214 98.8555C155.658 98.9003 156.054 98.577 156.099 98.1335L156.958 89.6277C157.003 89.1842 156.679 88.7883 156.236 88.7435Z" fill="#263238"/>
<path d="M153.694 94.135C153.542 95.6014 152.582 96.3268 151.299 96.1942C150.888 96.164 150.493 96.0224 150.156 95.7847L150.593 95.1022C150.817 95.2774 151.089 95.3796 151.373 95.3947C152.075 95.4649 152.578 95.0944 152.691 94.2832C152.537 94.3986 152.36 94.4821 152.173 94.529C151.985 94.5758 151.791 94.5851 151.6 94.5562C151.414 94.5526 151.231 94.511 151.063 94.4339C150.894 94.3568 150.743 94.2459 150.619 94.108C150.495 93.9701 150.401 93.8083 150.342 93.6325C150.283 93.4566 150.261 93.2706 150.277 93.0859C150.367 92.2201 151.132 91.7482 152.029 91.8418C153.195 91.9627 153.838 92.77 153.694 94.135ZM152.676 93.2848C152.711 92.9221 152.465 92.6296 152.001 92.5789C151.913 92.5619 151.823 92.5635 151.736 92.5835C151.649 92.6035 151.567 92.6416 151.496 92.6952C151.424 92.7488 151.365 92.8168 151.321 92.8948C151.278 92.9728 151.251 93.0591 151.243 93.148C151.234 93.237 151.245 93.3267 151.273 93.4113C151.302 93.496 151.348 93.5737 151.409 93.6395C151.469 93.7053 151.543 93.7577 151.624 93.7933C151.706 93.829 151.795 93.847 151.884 93.8464C151.974 93.8655 152.066 93.8658 152.156 93.8475C152.245 93.8291 152.33 93.7924 152.405 93.7396C152.48 93.6869 152.543 93.6192 152.59 93.541C152.637 93.4627 152.668 93.3755 152.68 93.2848H152.676Z" fill="white"/>
<path d="M172.777 91.1034L164.231 90.2232C163.785 90.1773 163.387 90.5014 163.341 90.9471L162.461 99.4936C162.415 99.9392 162.739 100.338 163.184 100.384L171.731 101.264C172.177 101.31 172.575 100.986 172.621 100.54L173.501 91.9935C173.547 91.5478 173.223 91.1493 172.777 91.1034Z" fill="#031D44"/>
<g opacity="0.4">
<path opacity="0.4" d="M172.777 91.1034L164.231 90.2232C163.785 90.1773 163.387 90.5014 163.341 90.9471L162.461 99.4936C162.415 99.9392 162.739 100.338 163.184 100.384L171.731 101.264C172.177 101.31 172.575 100.986 172.621 100.54L173.501 91.9935C173.547 91.5478 173.223 91.1493 172.777 91.1034Z" fill="black"/>
</g>
<path d="M171.211 90.9394L162.665 90.0592C162.219 90.0133 161.82 90.3374 161.775 90.783L160.894 99.3295C160.848 99.7752 161.173 100.174 161.618 100.22L170.165 101.1C170.61 101.146 171.009 100.822 171.055 100.376L171.935 91.8294C171.981 91.3837 171.657 90.9853 171.211 90.9394Z" fill="#263238"/>
<path d="M164.166 95.1614L164.126 95.5493L168.665 96.0168L168.705 95.6288L164.166 95.1614Z" fill="white"/>
<path d="M156.555 104.487L148.008 103.607C147.563 103.561 147.164 103.885 147.118 104.331L146.238 112.877C146.192 113.323 146.516 113.721 146.962 113.767L155.508 114.648C155.954 114.693 156.353 114.369 156.398 113.924L157.279 105.377C157.325 104.932 157.001 104.533 156.555 104.487Z" fill="#031D44"/>
<g opacity="0.4">
<path opacity="0.4" d="M156.555 104.487L148.008 103.607C147.563 103.561 147.164 103.885 147.118 104.331L146.238 112.877C146.192 113.323 146.516 113.721 146.962 113.767L155.508 114.648C155.954 114.693 156.353 114.369 156.399 113.924L157.279 105.377C157.325 104.932 157.001 104.533 156.555 104.487Z" fill="black"/>
</g>
<path d="M154.985 104.324L146.438 103.443C145.993 103.398 145.594 103.722 145.548 104.167L144.668 112.714C144.622 113.159 144.946 113.558 145.392 113.604L153.938 114.484C154.384 114.53 154.783 114.206 154.828 113.76L155.709 105.214C155.755 104.768 155.43 104.37 154.985 104.324Z" fill="#263238"/>
<path d="M171.244 106L162.697 105.12C162.252 105.074 161.853 105.398 161.807 105.844L160.927 114.39C160.881 114.836 161.205 115.234 161.651 115.28L170.197 116.16C170.643 116.206 171.042 115.882 171.087 115.436L171.968 106.89C172.014 106.444 171.689 106.046 171.244 106Z" fill="#031D44"/>
<g opacity="0.4">
<path opacity="0.4" d="M171.244 106L162.697 105.12C162.252 105.074 161.853 105.398 161.807 105.844L160.927 114.39C160.881 114.836 161.205 115.234 161.651 115.28L170.197 116.16C170.643 116.206 171.042 115.882 171.087 115.436L171.968 106.89C172.014 106.444 171.689 106.046 171.244 106Z" fill="black"/>
</g>
<path d="M169.678 105.836L161.131 104.956C160.686 104.91 160.287 105.234 160.241 105.68L159.361 114.226C159.315 114.672 159.639 115.071 160.085 115.117L168.631 115.997C169.077 116.043 169.475 115.719 169.521 115.273L170.401 106.726C170.447 106.281 170.123 105.882 169.678 105.836Z" fill="#455A64"/>
<path d="M162.691 109.504L162.651 109.892L167.19 110.359L167.23 109.971L162.691 109.504Z" fill="white"/>
<path d="M162.516 111.228L162.476 111.616L167.015 112.083L167.055 111.695L162.516 111.228Z" fill="white"/>
<path d="M139.814 102.629L117.223 100.302C116.688 100.247 116.209 100.636 116.154 101.172L115.28 109.653C115.225 110.188 115.614 110.667 116.15 110.722L138.74 113.049C139.276 113.104 139.755 112.714 139.81 112.179L140.683 103.698C140.739 103.163 140.349 102.684 139.814 102.629Z" fill="#263238"/>
<path d="M127.064 106.381C127.209 104.981 128.067 104.271 129.108 104.376C130.149 104.482 130.84 105.355 130.695 106.755C130.551 108.156 129.701 108.865 128.656 108.756C127.61 108.647 126.92 107.777 127.064 106.381ZM129.709 106.654C129.81 105.691 129.51 105.258 129.022 105.207C128.535 105.156 128.156 105.519 128.059 106.482C127.961 107.446 128.258 107.879 128.741 107.929C129.225 107.98 129.611 107.613 129.709 106.654Z" fill="white"/>
<path d="M150.259 106.674L149.725 111.205L150.112 111.251L150.647 106.719L150.259 106.674Z" fill="white"/>
<path d="M147.941 108.541L147.901 108.929L152.44 109.396L152.48 109.008L147.941 108.541Z" fill="white"/>
<path d="M145.816 37.1794L145.165 43.5091L144.864 43.4779L145.504 37.429L143.913 37.2652L143.94 36.9844L145.816 37.1794Z" fill="#263238"/>
<path d="M151.018 43.829L150.987 44.1098L146.697 43.6691L146.721 43.4507L149.716 40.9976C150.574 40.2995 150.781 39.8549 150.835 39.3401C150.921 38.4977 150.391 37.8971 149.275 37.7801C148.925 37.717 148.564 37.7348 148.222 37.8322C147.879 37.9295 147.563 38.1038 147.298 38.3417L147.111 38.1233C147.409 37.8632 147.762 37.6723 148.143 37.5644C148.523 37.4565 148.924 37.4343 149.314 37.4993C150.523 37.6241 151.229 38.3261 151.124 39.3479C151.061 39.9485 150.82 40.4516 149.899 41.1965L147.169 43.4312L151.018 43.829Z" fill="#263238"/>
<path d="M156.034 42.8543C155.924 43.9073 155.109 44.5703 153.717 44.4143C153.307 44.3922 152.906 44.2823 152.542 44.0919C152.178 43.9014 151.859 43.635 151.607 43.3106L151.794 43.1117C152.026 43.4126 152.321 43.6598 152.657 43.8362C152.994 44.0126 153.365 44.114 153.744 44.1335C154.953 44.2583 155.648 43.7435 155.745 42.8153C155.843 41.8871 155.285 41.2553 153.943 41.1032L153.592 41.0642L153.616 40.8497L155.85 38.4824L152.36 38.1236L152.387 37.8428L156.287 38.2328L156.264 38.4473L154.017 40.8224C155.484 40.9862 156.143 41.7974 156.034 42.8543Z" fill="#263238"/>
<path d="M162.274 43.4236L160.897 43.2832L160.71 45.1123L160.41 45.0811L160.597 43.252L156.962 42.862L156.985 42.6436L160.928 38.7202L161.279 38.7553L157.379 42.6319L160.62 42.9673L160.784 41.3566L161.084 41.3878L160.917 42.9946L162.293 43.1389L162.274 43.4236Z" fill="#263238"/>
<path d="M163.588 45.1319C163.57 45.2452 163.54 45.3563 163.498 45.4634L163.046 46.6334L162.812 46.61L163.222 45.3893C163.143 45.3763 163.073 45.3327 163.026 45.268C162.98 45.2033 162.961 45.1227 162.974 45.0441C162.987 44.9655 163.03 44.8953 163.095 44.8488C163.16 44.8024 163.24 44.7835 163.319 44.7965C163.399 44.8063 163.471 44.8468 163.522 44.9095C163.572 44.9721 163.596 45.0519 163.588 45.1319V45.1319Z" fill="#263238"/>
<path d="M169.859 44.2073L168.486 44.0669L168.299 45.8921L167.999 45.8609L168.186 44.0357L164.551 43.6457L164.575 43.4273L168.514 39.5156L168.865 39.5546L164.965 43.4312L168.206 43.7627L168.369 42.152L168.67 42.1832L168.514 43.7939L169.89 43.9343L169.859 44.2073Z" fill="#263238"/>
<path d="M174.563 44.7299C174.454 45.7595 173.658 46.481 172.223 46.3328C171.814 46.3094 171.416 46.1988 171.054 46.0084C170.692 45.818 170.375 45.5523 170.125 45.2291L170.32 45.0302C170.55 45.3324 170.845 45.5804 171.181 45.7569C171.518 45.9334 171.89 46.0341 172.27 46.052C173.506 46.1807 174.18 45.5918 174.274 44.6948C174.375 43.7198 173.853 43.0802 172.043 42.893L170.815 42.7682L171.439 39.8159L174.703 40.1552L174.676 40.436L171.661 40.124L171.142 42.5186L172.117 42.62C174.052 42.8189 174.676 43.6067 174.563 44.7299Z" fill="#263238"/>
<path d="M105.381 174.432L102.9 183.601L110.961 184.334L112.654 175.606L105.381 174.432Z" fill="#031D44"/>
<path d="M111.184 183.589C110.793 183.617 110.401 183.604 110.014 183.55C109.288 183.492 108.29 183.379 107.186 183.238L104.37 182.848C103.975 182.819 103.583 182.751 103.2 182.646C103.591 182.623 103.983 182.639 104.37 182.692C105.096 182.751 106.094 182.864 107.198 183.004L110.014 183.394C110.409 183.426 110.8 183.491 111.184 183.589V183.589Z" fill="#263238"/>
<g opacity="0.6">
<path opacity="0.6" d="M102.9 183.601L110.961 184.334L111.09 183.663L103.134 182.653L102.912 183.507" fill="white"/>
</g>
<path d="M106.894 183.191C107.347 180.837 107.919 178.507 108.61 176.21C108.411 177.393 108.151 178.565 107.83 179.72C107.578 180.893 107.266 182.051 106.894 183.191V183.191Z" fill="#263238"/>
<path d="M110.751 183.531C110.877 182.97 110.877 182.388 110.751 181.827C110.609 181.224 110.304 180.672 109.869 180.232C109.327 179.702 108.619 179.376 107.865 179.307C107.111 179.229 106.353 179.402 105.708 179.799C105.184 180.131 104.753 180.59 104.452 181.132C104.185 181.642 104.012 182.196 103.941 182.767C103.936 182.726 103.936 182.686 103.941 182.646C103.94 182.53 103.946 182.414 103.961 182.299C104.017 181.869 104.149 181.453 104.351 181.07C104.647 180.494 105.088 180.005 105.63 179.65C106.306 179.223 107.105 179.037 107.9 179.12C108.697 179.193 109.443 179.542 110.01 180.107C110.459 180.575 110.767 181.16 110.899 181.795C110.986 182.22 110.986 182.658 110.899 183.082C110.874 183.197 110.84 183.309 110.798 183.418C110.787 183.458 110.772 183.496 110.751 183.531V183.531Z" fill="#263238"/>
<path d="M138.628 173.387L138.148 180.606C138.148 180.606 145.332 182.989 145.375 184.331L131.335 184.432L131.62 173.153L138.628 173.387Z" fill="#031D44"/>
<g opacity="0.6">
<path opacity="0.6" d="M133.827 179.869C133.691 179.906 133.573 179.992 133.496 180.111C133.419 180.23 133.389 180.372 133.41 180.512C133.442 180.65 133.526 180.771 133.644 180.848C133.762 180.926 133.906 180.955 134.046 180.929C134.19 180.889 134.314 180.797 134.394 180.672C134.475 180.546 134.506 180.395 134.482 180.247C134.434 180.107 134.334 179.991 134.202 179.924C134.071 179.856 133.918 179.842 133.777 179.884" fill="white"/>
</g>
<g opacity="0.6">
<path opacity="0.6" d="M131.335 184.44L131.409 183.301L144.926 183.691C145.069 183.764 145.192 183.873 145.282 184.005C145.373 184.138 145.429 184.291 145.445 184.451L131.335 184.44Z" fill="white"/>
</g>
<path d="M138.378 180.543C138.378 180.614 138.031 180.633 137.684 180.844C137.337 181.054 137.154 181.335 137.091 181.308C137.029 181.28 137.142 180.887 137.563 180.637C137.985 180.387 138.394 180.481 138.378 180.543Z" fill="#263238"/>
<path d="M139.829 181.199C139.829 181.265 139.544 181.37 139.303 181.655C139.061 181.94 138.983 182.24 138.913 182.236C138.842 182.232 138.811 181.846 139.119 181.495C139.427 181.144 139.833 181.132 139.829 181.199Z" fill="#263238"/>
<path d="M140.613 182.985C140.551 182.985 140.465 182.649 140.652 182.283C140.839 181.916 141.167 181.772 141.194 181.83C141.222 181.889 141.015 182.084 140.867 182.388C140.719 182.692 140.683 182.981 140.613 182.985Z" fill="#263238"/>
<path d="M138.304 178.886C138.273 178.949 137.961 178.843 137.575 178.859C137.189 178.875 136.881 178.988 136.846 178.925C136.811 178.863 137.111 178.633 137.567 178.621C138.024 178.609 138.34 178.836 138.304 178.886Z" fill="#263238"/>
<g opacity="0.3">
<path opacity="0.3" d="M138.531 174.818L138.445 176.105L131.55 175.832L131.577 174.674L138.531 174.818Z" fill="black"/>
</g>
<path d="M138.374 177.427C138.143 177.482 137.9 177.474 137.672 177.404C137.42 177.351 137.175 177.267 136.943 177.154C136.808 177.089 136.677 177.013 136.553 176.928C136.475 176.883 136.405 176.825 136.346 176.757C136.302 176.706 136.277 176.643 136.273 176.577C136.27 176.51 136.289 176.444 136.327 176.39C136.363 176.344 136.409 176.307 136.462 176.281C136.515 176.255 136.573 176.242 136.631 176.242C136.72 176.243 136.808 176.259 136.892 176.288C137.042 176.329 137.187 176.384 137.325 176.452C137.56 176.566 137.774 176.716 137.961 176.897C138.277 177.209 138.382 177.466 138.351 177.478C138.32 177.49 138.168 177.283 137.844 177.022C137.656 176.872 137.449 176.747 137.228 176.651C137.102 176.594 136.972 176.549 136.838 176.515C136.69 176.472 136.565 176.464 136.522 176.515C136.479 176.565 136.522 176.55 136.522 176.593C136.567 176.642 136.618 176.685 136.674 176.721C136.796 176.805 136.917 176.879 137.037 176.944C137.251 177.058 137.476 177.152 137.708 177.225C137.934 177.278 138.157 177.346 138.374 177.427V177.427Z" fill="#263238"/>
<path d="M138.281 177.525C138.157 177.318 138.1 177.079 138.117 176.838C138.11 176.427 138.218 176.022 138.429 175.668C138.469 175.577 138.532 175.497 138.612 175.437C138.692 175.377 138.786 175.338 138.885 175.325C138.948 175.328 139.009 175.349 139.061 175.385C139.112 175.422 139.151 175.473 139.174 175.532C139.207 175.614 139.23 175.701 139.24 175.789C139.265 176 139.247 176.214 139.189 176.418C139.131 176.622 139.033 176.813 138.901 176.979C138.616 177.338 138.328 177.408 138.324 177.369C138.32 177.33 138.546 177.209 138.764 176.866C138.891 176.669 138.974 176.446 139.006 176.214C139.026 176.079 139.026 175.941 139.006 175.805C139.006 175.657 138.936 175.536 138.881 175.547C138.827 175.559 138.69 175.653 138.628 175.77C138.556 175.895 138.493 176.025 138.441 176.16C138.357 176.383 138.304 176.616 138.285 176.854C138.254 177.256 138.32 177.513 138.281 177.525Z" fill="#263238"/>
<path d="M108.185 60.9305C108.185 60.9305 106.66 69.2375 105.455 74.2646C104.503 78.1646 102.046 85.4888 106.496 87.6143C110.946 89.7398 116.913 81.1559 116.913 81.1559L119.452 61.6013C117.685 61.9328 115.68 63.9842 113.547 66.9989L113.937 59.5889L108.185 60.9305Z" fill="#455A64"/>
<path d="M169.422 73.204L167.082 74.3194L164.926 70.9381L166.185 68.329C166.306 68.0872 166.435 67.8181 166.575 67.5061C166.732 67.1408 166.825 66.7519 166.852 66.3556C166.907 65.8674 166.895 65.3742 166.817 64.8892C166.7 64.4524 167.16 64.1092 167.472 64.351C167.784 64.5928 168.135 65.794 167.905 67.2331C167.675 68.6722 169.344 67.1473 169.965 66.6013C170.585 66.0553 172.578 64.4641 172.893 64.5265C173.35 64.6162 173.338 65.1388 172.706 65.6653C172.074 66.1918 170.292 67.9195 170.585 68.2393C170.95 68.2804 171.294 68.4344 171.568 68.6797C171.842 68.925 172.032 69.2495 172.113 69.6082C172.269 70.3141 172.398 71.293 172 71.6167C171.176 72.2006 170.315 72.7308 169.422 73.204V73.204Z" fill="#FFBE9D"/>
<path d="M124.054 41.684L123.991 62.0069L132.704 62.4359L132.958 57.4946C132.958 57.4946 136.054 58.1108 136.858 55.2326C137.368 53.3957 137.248 39.1958 137.248 39.1958L124.054 41.684Z" fill="#FFBE9D"/>
<path d="M139.205 41.1849C138.616 42.3978 135.82 44.6208 135.82 44.6208L134.557 48.006C133.461 47.148 131.986 47.1987 131.71 49.1253C131.507 50.5215 133.238 50.8023 133.238 50.8023C132.228 52.5183 131.546 53.9223 130.079 55.5369C128.488 57.3075 127.599 57.4869 125.875 57.5142H123.972C123.972 57.5142 120.072 54.2616 120.852 45.7011C121.632 37.1406 129.319 39.6405 131.156 37.5111C134.147 34.0167 141.167 37.1328 139.205 41.1849Z" fill="#263238"/>
<path d="M121.285 52.8576H121.526C121.759 52.8535 121.99 52.8274 122.217 52.7796C123.05 52.5899 123.821 52.1867 124.451 51.6096C125.356 50.7213 126.119 49.6993 126.713 48.5793C127.103 47.967 127.47 47.3157 127.938 46.6878C128.409 46.028 128.988 45.4519 129.65 44.9835C130.331 44.5425 131.083 44.2219 131.873 44.0358C132.63 43.8408 133.375 43.7199 134.077 43.5834C135.481 43.3221 136.74 42.9321 137.587 42.2652C138.279 41.7585 138.781 41.033 139.01 40.206C139.065 39.9814 139.094 39.751 139.096 39.5196C139.096 39.3597 139.096 39.2739 139.096 39.2739C139.096 39.2739 139.096 39.3597 139.123 39.5196C139.128 39.753 139.105 39.9862 139.053 40.2138C138.831 41.0539 138.331 41.7937 137.633 42.312C136.768 42.9906 135.496 43.3923 134.092 43.6536C133.386 43.794 132.645 43.9149 131.893 44.1138C131.112 44.2994 130.368 44.6159 129.693 45.0498C129.041 45.5158 128.469 46.0849 128 46.7346C127.536 47.3586 127.15 48.006 126.78 48.6183C126.178 49.742 125.406 50.7655 124.49 51.6525C123.851 52.2353 123.07 52.6389 122.225 52.8225C121.995 52.8675 121.761 52.8897 121.526 52.8888C121.367 52.8693 121.285 52.8576 121.285 52.8576Z" fill="#455A64"/>
<path d="M120.836 45.8962C120.836 45.8962 120.973 45.8416 121.226 45.7558C121.614 45.6193 122.016 45.5239 122.423 45.4711C123.073 45.3722 123.736 45.5106 124.292 45.8611C124.463 45.9753 124.61 46.1223 124.725 46.2936C124.839 46.465 124.919 46.6573 124.958 46.8595C125.005 47.0878 124.994 47.324 124.926 47.5468C124.857 47.7695 124.735 47.9717 124.568 48.1348C124.379 48.3014 124.138 48.3978 123.886 48.4078C123.624 48.4117 123.366 48.3429 123.141 48.2089C122.664 47.9256 122.308 47.4755 122.143 46.9453C121.955 46.3867 121.929 45.7864 122.069 45.2137C122.212 44.6087 122.541 44.0634 123.008 43.6537C123.498 43.2149 124.114 42.942 124.767 42.8737C125.445 42.8314 126.124 42.9188 126.768 43.1311C127.431 43.3439 128.109 43.5069 128.796 43.6186C129.505 43.7123 130.224 43.7123 130.933 43.6186C131.643 43.5342 132.336 43.3422 132.989 43.0492C133.308 42.9207 133.595 42.7254 133.833 42.4766C134.07 42.2277 134.252 41.931 134.365 41.6062C134.458 41.2883 134.465 40.9513 134.385 40.6299C134.305 40.3085 134.14 40.0142 133.909 39.7771C133.674 39.5645 133.381 39.4262 133.067 39.3797C132.753 39.3332 132.433 39.3806 132.146 39.5158C131.867 39.6384 131.638 39.8532 131.499 40.1242C131.366 40.3907 131.317 40.6913 131.358 40.9861C131.398 41.2684 131.498 41.539 131.65 41.7798C131.803 42.0205 132.005 42.226 132.244 42.3823C132.702 42.6638 133.23 42.8123 133.769 42.8113C134.265 42.8203 134.759 42.7464 135.231 42.5929C136.049 42.3356 136.792 41.8832 137.396 41.2747C137.855 40.8224 138.234 40.2948 138.515 39.7147C138.692 39.3403 138.83 38.9481 138.924 38.5447C138.975 38.2717 139.01 38.1274 139.01 38.1274L138.94 38.5486C138.853 38.9518 138.723 39.3442 138.55 39.7186C138.275 40.3094 137.897 40.8468 137.435 41.3059C136.829 41.9238 136.082 42.3843 135.258 42.6475C134.78 42.8021 134.279 42.8785 133.776 42.8737C133.226 42.8772 132.686 42.7273 132.216 42.4408C131.969 42.28 131.759 42.068 131.6 41.8191C131.441 41.5702 131.337 41.2901 131.296 40.9978C131.25 40.6886 131.3 40.3726 131.44 40.093C131.588 39.8074 131.829 39.5805 132.123 39.4495C132.423 39.307 132.759 39.2569 133.089 39.3055C133.418 39.3541 133.725 39.4992 133.971 39.7225C134.212 39.969 134.384 40.2751 134.468 40.6094C134.552 40.9437 134.547 41.2944 134.451 41.6257C134.334 41.9617 134.147 42.2689 133.902 42.5271C133.657 42.7852 133.361 42.9885 133.031 43.1233C132.371 43.4184 131.671 43.6129 130.953 43.7005C130.236 43.7922 129.509 43.7922 128.792 43.7005C128.103 43.5878 127.422 43.4249 126.756 43.213C126.12 43.0043 125.451 42.9157 124.783 42.9517C124.33 43 123.893 43.1494 123.505 43.3888C123.117 43.6282 122.787 43.9515 122.541 44.3351C122.294 44.7186 122.137 45.1525 122.08 45.6049C122.023 46.0573 122.069 46.5167 122.213 46.9492C122.373 47.4637 122.718 47.9011 123.18 48.1777C123.395 48.3062 123.64 48.3736 123.89 48.3727C124.129 48.3638 124.357 48.2729 124.537 48.1153C124.695 47.9576 124.812 47.7633 124.876 47.5496C124.941 47.3359 124.952 47.1096 124.908 46.8907C124.829 46.497 124.6 46.1497 124.268 45.9235C123.721 45.5766 123.068 45.4382 122.427 45.5335C122.021 45.5824 121.622 45.6726 121.234 45.8026L120.836 45.8962Z" fill="#455A64"/>
<path d="M115.088 101.222L103.481 177.459L113.122 178.68L126.721 114.739L130.149 179.112L140.598 178.929L138.866 101.401L115.088 101.222Z" fill="#263238"/>
<path d="M129.962 179.307V179.12L126.616 116.221L113.274 178.898L103.259 177.626L114.92 101.046L139.057 101.225L140.797 179.139L129.962 179.307ZM126.842 113.253L130.352 178.913L140.418 178.738L138.694 101.596L115.255 101.436L103.704 177.287L112.966 178.457L126.842 113.253Z" fill="#263238"/>
<path d="M137.493 178.804C137.435 178.804 137.392 163.532 137.392 144.695C137.392 125.858 137.435 110.578 137.493 110.578C137.552 110.578 137.595 125.85 137.595 144.695C137.595 163.54 137.548 178.804 137.493 178.804Z" fill="#455A64"/>
<path d="M111 178.527C111.003 178.472 111.011 178.417 111.024 178.364C111.024 178.243 111.075 178.083 111.114 177.88C111.195 177.447 111.316 176.823 111.468 176.028C111.796 174.409 112.248 172.089 112.837 169.222C114.007 163.477 115.665 155.553 117.568 146.817C119.471 138.081 121.261 130.179 122.587 124.473C123.254 121.626 123.796 119.322 124.175 117.715C124.366 116.935 124.518 116.311 124.619 115.882C124.67 115.679 124.713 115.523 124.74 115.406C124.753 115.352 124.77 115.298 124.791 115.246C124.791 115.246 124.791 115.301 124.76 115.41C124.728 115.519 124.705 115.687 124.662 115.89C124.565 116.322 124.428 116.943 124.253 117.734C123.89 119.341 123.371 121.634 122.728 124.505C121.437 130.222 119.67 138.123 117.767 146.859C115.864 155.595 114.183 163.516 112.978 169.249C112.373 172.112 111.886 174.429 111.546 176.043C111.379 176.823 111.246 177.455 111.156 177.888L111.047 178.368C111.037 178.422 111.021 178.476 111 178.527V178.527Z" fill="#455A64"/>
<path d="M130.15 114.669C130.006 114.707 129.858 114.727 129.709 114.727L128.504 114.813C127.486 114.879 126.078 114.95 124.534 115.102C122.989 115.254 121.597 115.464 120.587 115.597L119.389 115.749C119.243 115.777 119.094 115.786 118.945 115.776C119.085 115.725 119.23 115.69 119.378 115.671C119.655 115.613 120.06 115.538 120.548 115.453C121.554 115.285 122.946 115.063 124.498 114.899C126.051 114.735 127.462 114.7 128.48 114.669C128.991 114.669 129.405 114.649 129.689 114.649C129.843 114.639 129.997 114.646 130.15 114.669V114.669Z" fill="#455A64"/>
<path d="M139.069 109.72C138.974 109.761 138.872 109.786 138.768 109.794C138.49 109.834 138.207 109.847 137.926 109.833C136.99 109.783 136.087 109.464 135.327 108.916C134.566 108.368 133.979 107.612 133.636 106.74C133.532 106.478 133.455 106.206 133.406 105.929C133.371 105.734 133.367 105.625 133.383 105.621C133.398 105.617 133.484 106.05 133.772 106.681C134.146 107.506 134.727 108.221 135.457 108.756C136.195 109.279 137.057 109.6 137.957 109.688C138.628 109.759 139.061 109.681 139.069 109.72Z" fill="#455A64"/>
<path d="M113.103 102.719L139.81 102.633L138.347 85.009C138.187 80.9764 138.211 80.4928 138.109 76.7722C138.109 76.7722 141.9 81.3547 144.884 84.5722C145.763 85.5175 146.92 86.1584 148.188 86.4017C149.456 86.645 150.768 86.4782 151.935 85.9255L167.535 75.0406L164.614 67.5643L150.437 76.2418C149.786 75.8518 144.267 67.9621 140.453 64.1206C138.011 61.6618 134.717 60.2361 131.253 60.1387C128.378 60.0714 125.502 60.1873 122.642 60.4858C120.558 60.7088 118.618 61.6508 117.154 63.1498C115.69 64.6488 114.794 66.611 114.62 68.6992C114.343 71.9947 114.565 75.8206 114.565 82.3219L113.103 102.719Z" fill="#455A64"/>
<path d="M114.358 70.4814C114.358 70.4814 114.358 70.5555 114.358 70.6881C114.358 70.8207 114.358 71.043 114.358 71.277C114.358 71.7918 114.358 72.5328 114.358 73.4493C114.358 75.2823 114.44 77.8095 114.522 80.6058C114.604 83.4021 114.616 85.9371 114.546 87.7662C114.514 88.6827 114.472 89.4237 114.429 89.9346C114.429 90.1725 114.394 90.3675 114.382 90.5235C114.37 90.6795 114.358 90.7263 114.358 90.7263C114.358 90.7263 114.358 90.6561 114.358 90.5235C114.358 90.3909 114.378 90.1686 114.39 89.9346C114.425 89.4237 114.456 88.6827 114.479 87.7662C114.534 85.9332 114.511 83.4021 114.433 80.6058C114.355 77.8095 114.288 75.2823 114.292 73.4493C114.292 72.5328 114.292 71.7918 114.319 71.277C114.319 71.0391 114.319 70.848 114.339 70.6881C114.358 70.5282 114.358 70.4814 114.358 70.4814Z" fill="#263238"/>
<path d="M149.852 78.7651C149.857 78.6412 149.875 78.5183 149.907 78.3985C149.954 78.1723 150.02 77.8603 150.102 77.521C150.184 77.1817 150.258 76.8697 150.316 76.6513C150.339 76.5288 150.377 76.4096 150.429 76.2964C150.425 76.4205 150.405 76.5436 150.371 76.663C150.328 76.8892 150.258 77.1973 150.18 77.5405C150.102 77.8837 150.024 78.1879 149.965 78.4102C149.941 78.5323 149.903 78.6513 149.852 78.7651V78.7651Z" fill="#263238"/>
<path d="M151.276 78.9838C151.127 78.5235 151.005 78.0547 150.913 77.5798C150.793 77.1107 150.698 76.6355 150.628 76.1562C150.775 76.6171 150.897 77.0858 150.991 77.5603C151.111 78.0294 151.206 78.5045 151.276 78.9838Z" fill="#263238"/>
<path d="M138.769 77.4316L138.624 77.299L138.215 76.909C137.864 76.5658 137.357 76.0627 136.748 75.4192C136.035 74.671 135.371 73.8777 134.759 73.0441C134.003 72.0235 133.393 70.9025 132.946 69.7135C132.494 68.5219 132.291 67.2504 132.349 65.9773C132.369 64.9376 132.597 63.9124 133.02 62.9626C133.323 62.3272 133.774 61.7736 134.334 61.348C134.484 61.2337 134.642 61.1295 134.806 61.036L134.982 60.9385C134.982 60.9385 134.74 61.0711 134.354 61.3714C133.806 61.8026 133.367 62.3554 133.071 62.986C132.659 63.9317 132.439 64.9498 132.423 65.9812C132.369 67.2442 132.573 68.505 133.024 69.6862C133.468 70.8676 134.072 71.9829 134.818 73.0012C135.426 73.8339 136.085 74.6284 136.791 75.3802C137.392 76.0276 137.891 76.5502 138.238 76.8895L138.628 77.2795C138.726 77.3809 138.769 77.4316 138.769 77.4316Z" fill="#263238"/>
<path d="M121.409 70.1812C121.057 69.8965 120.748 69.5614 120.493 69.1867C120.189 68.8531 119.934 68.4775 119.736 68.0713C120.088 68.3552 120.397 68.6889 120.653 69.0619C120.959 69.3957 121.214 69.7729 121.409 70.1812V70.1812Z" fill="#FAFAFA"/>
<path d="M127.478 77.0688C127.108 77.5807 126.685 78.0514 126.214 78.4728C125.791 78.9427 125.319 79.3663 124.806 79.7365C125.6 78.7548 126.495 77.8605 127.478 77.0688V77.0688Z" fill="#FAFAFA"/>
<path d="M133.351 86.955C133.297 86.955 133.082 86.37 132.684 85.6953C132.287 85.0206 131.873 84.5253 131.904 84.498C132.307 84.7776 132.632 85.1546 132.848 85.5939C133.127 85.9986 133.3 86.4665 133.351 86.955V86.955Z" fill="#FAFAFA"/>
<path d="M118.126 85.8359C117.532 84.5907 117.29 83.2073 117.424 81.8345C117.486 81.8345 117.502 82.7471 117.701 83.8469C117.899 84.9467 118.204 85.8125 118.126 85.8359Z" fill="#FAFAFA"/>
<path d="M126.21 90.1885C125.724 89.1418 125.62 87.9581 125.914 86.8423C125.972 86.8423 125.887 87.6028 125.972 88.5232C126.058 89.4436 126.269 90.169 126.21 90.1885Z" fill="#FAFAFA"/>
<path d="M123.012 96.5101C122.369 96.2298 121.755 95.8862 121.179 95.4844C120.567 95.1409 119.988 94.74 119.452 94.2871C120.096 94.5678 120.711 94.9114 121.289 95.3128C121.9 95.6561 122.477 96.057 123.012 96.5101V96.5101Z" fill="#FAFAFA"/>
<path d="M135.586 94.6421C135.613 94.6967 134.708 95.1452 133.659 95.8121C132.61 96.479 131.811 97.0991 131.772 97.0523C132.29 96.4951 132.89 96.0192 133.55 95.6405C134.174 95.2059 134.86 94.8692 135.586 94.6421Z" fill="#FAFAFA"/>
<path d="M119.764 101.791C119.106 101.76 118.453 101.663 117.814 101.502C117.156 101.405 116.511 101.241 115.887 101.011C116.545 101.042 117.199 101.14 117.837 101.303C118.494 101.4 119.14 101.563 119.764 101.791V101.791Z" fill="#FAFAFA"/>
<path d="M128.203 100.418C127.459 99.6964 126.954 98.7641 126.756 97.7466C126.811 97.7466 127.053 98.3628 127.454 99.096C127.856 99.8292 128.25 100.379 128.203 100.418Z" fill="#FAFAFA"/>
<path d="M137.704 101.077C137.557 101.407 137.351 101.708 137.095 101.963C136.705 102.415 136.378 102.743 136.315 102.719C136.459 102.385 136.665 102.082 136.924 101.826C137.314 101.381 137.645 101.046 137.704 101.077Z" fill="#FAFAFA"/>
<path d="M120.337 74.2686C120.368 74.3154 120.021 74.604 119.557 74.9082C119.294 75.1239 118.99 75.2856 118.664 75.384C118.633 75.3372 118.984 75.0486 119.444 74.7405C119.707 74.5249 120.011 74.3644 120.337 74.2686V74.2686Z" fill="#FAFAFA"/>
<path d="M126.92 66.9173C126.608 66.278 126.372 65.6037 126.218 64.9088C126.007 64.2309 125.876 63.5306 125.828 62.8223C126.073 63.4862 126.271 64.1664 126.421 64.8581C126.636 65.5318 126.803 66.2199 126.92 66.9173V66.9173Z" fill="#FAFAFA"/>
<path d="M133.242 73.6094C133.215 73.6639 132.645 73.4456 131.916 73.3091C131.187 73.1726 130.574 73.1609 130.574 73.0985C131.496 72.9379 132.445 73.1196 133.242 73.6094V73.6094Z" fill="#FAFAFA"/>
<path d="M137.587 67.9231C137.102 68.0646 136.59 68.082 136.097 67.9738C135.594 67.9305 135.111 67.76 134.693 67.4785C134.716 67.4239 135.332 67.654 136.128 67.771C136.924 67.888 137.579 67.8646 137.587 67.9231Z" fill="#FAFAFA"/>
<path d="M142.029 74.2647C141.956 73.547 141.992 72.8224 142.138 72.1158C142.221 71.3984 142.416 70.6984 142.715 70.041C142.77 70.041 142.524 70.9848 142.325 72.147C142.126 73.3092 142.091 74.2686 142.029 74.2647Z" fill="#FAFAFA"/>
<path d="M147.255 81.7368C146.283 80.9244 145.401 80.0091 144.626 79.0068C145.596 79.822 146.477 80.737 147.255 81.7368V81.7368Z" fill="#FAFAFA"/>
<path d="M151.6 81.1558C151.196 82.0374 150.671 82.858 150.04 83.5933C150.213 83.1374 150.449 82.7081 150.742 82.318C150.972 81.8922 151.26 81.501 151.6 81.1558V81.1558Z" fill="#FAFAFA"/>
<path d="M156.642 78.7031C156.303 78.2393 156.02 77.7365 155.8 77.2055C155.519 76.7024 155.298 76.1684 155.141 75.6143C155.48 76.0798 155.762 76.5838 155.983 77.1158C156.263 77.6177 156.484 78.1503 156.642 78.7031Z" fill="#FAFAFA"/>
<path d="M163.506 75.8637C162.303 75.7884 161.112 75.5765 159.957 75.2319C160.561 75.238 161.163 75.3113 161.751 75.4503C162.35 75.5213 162.939 75.66 163.506 75.8637V75.8637Z" fill="#FAFAFA"/>
<path d="M108.984 83.1683C109.401 81.9571 109.947 80.7946 110.614 79.7012C110.436 80.3167 110.193 80.9116 109.889 81.4757C109.648 82.0702 109.345 82.6376 108.984 83.1683Z" fill="#FAFAFA"/>
<path d="M112.623 76.749C112.187 76.4079 111.794 76.015 111.453 75.579C111.059 75.1875 110.713 74.7516 110.419 74.2803C110.857 74.6199 111.25 75.0129 111.589 75.4503C111.985 75.84 112.332 76.276 112.623 76.749V76.749Z" fill="#FAFAFA"/>
<path d="M112.319 87.0564C112.354 87.0993 112.085 87.384 111.718 87.6921C111.351 88.0002 111.02 88.2108 110.981 88.1679C110.942 88.125 111.219 87.8403 111.585 87.5361C111.952 87.2319 112.284 87.0057 112.319 87.0564Z" fill="#FAFAFA"/>
<path d="M113.547 69.928C113.594 69.9631 113.43 70.24 113.184 70.5481C112.939 70.8562 112.701 71.0746 112.658 71.0395C112.615 71.0044 112.779 70.7275 113.025 70.4194C113.27 70.1113 113.524 69.8929 113.547 69.928Z" fill="#FAFAFA"/>
<g opacity="0.3">
<path opacity="0.3" d="M133.932 71.6982C135.582 76.8813 136.853 82.3218 138.503 87.5049L138.113 76.7721C136.509 75.266 135.104 73.5609 133.932 71.6982V71.6982Z" fill="black"/>
</g>
<path d="M107.096 78.4805C107.11 78.4376 107.127 78.3959 107.147 78.3557L107.303 77.993C107.444 77.681 107.65 77.2364 107.915 76.6865C108.446 75.5867 109.21 74.0852 110.131 72.4628C111.051 70.8404 111.944 69.413 112.615 68.3951C112.95 67.8842 113.227 67.4747 113.422 67.1978L113.648 66.878C113.703 66.8039 113.73 66.7649 113.734 66.7688L113.664 66.8858L113.45 67.2134L112.67 68.4263C112.01 69.452 111.11 70.8833 110.209 72.5018C109.308 74.1203 108.516 75.6218 107.978 76.7099L107.342 78.0086C107.276 78.1412 107.217 78.2582 107.171 78.3596C107.15 78.4024 107.125 78.443 107.096 78.4805V78.4805Z" fill="#263238"/>
<path d="M109.729 73.5156C109.59 73.5846 109.447 73.6446 109.3 73.695C108.961 73.843 108.637 74.0232 108.333 74.2332C108.03 74.4457 107.75 74.6873 107.494 74.9547C107.296 75.1614 107.186 75.2979 107.179 75.2901C107.171 75.2823 107.179 75.2511 107.241 75.1848C107.306 75.091 107.376 75.0011 107.452 74.9157C107.697 74.6318 107.977 74.3802 108.286 74.1669C108.595 73.9526 108.929 73.7771 109.281 73.6443C109.386 73.6031 109.494 73.5679 109.604 73.539C109.645 73.5255 109.687 73.5176 109.729 73.5156V73.5156Z" fill="#263238"/>
<path d="M110.096 65.5171C109.762 66.1559 109.37 66.763 108.926 67.3306C108.529 67.9365 108.076 68.5032 107.572 69.0232C107.908 68.3865 108.299 67.7809 108.742 67.2136C109.139 66.607 109.592 66.039 110.096 65.5171Z" fill="#FAFAFA"/>
<path d="M112.911 59.1756C113.105 59.2098 113.304 59.1831 113.481 59.0993C113.659 59.0154 113.806 58.8786 113.902 58.7076C114.12 58.38 114.222 57.99 114.413 57.6468C114.994 56.6289 116.312 56.1843 116.843 55.1391C116.917 54.9909 116.96 54.7881 116.843 54.6867C116.726 54.5853 116.55 54.6555 116.414 54.7218L112.943 56.4612" fill="#FFBE9D"/>
<path d="M112.935 56.4612C113.042 56.3696 113.161 56.2935 113.29 56.235C113.524 56.1024 113.871 55.9191 114.3 55.6929L115.805 54.9129L116.246 54.6906C116.41 54.5739 116.612 54.525 116.811 54.5541C116.872 54.5775 116.925 54.6185 116.963 54.672C117 54.7256 117.021 54.7891 117.022 54.8544C117.024 54.9625 117 55.0695 116.952 55.1664C116.867 55.3381 116.762 55.4992 116.64 55.6461C116.151 56.1397 115.63 56.5997 115.08 57.0228C114.859 57.2159 114.669 57.4406 114.514 57.6897C114.374 57.9276 114.284 58.1733 114.175 58.3956C114.106 58.5835 113.997 58.7539 113.854 58.8948C113.712 59.0356 113.541 59.1435 113.352 59.2107C113.284 59.2381 113.21 59.2495 113.136 59.244C113.062 59.2386 112.991 59.2166 112.927 59.1795C113.059 59.1842 113.191 59.1671 113.317 59.1288C113.482 59.0537 113.63 58.9458 113.752 58.8117C113.874 58.6776 113.968 58.5202 114.027 58.3488C114.121 58.1003 114.227 57.8569 114.347 57.6195C114.504 57.3495 114.701 57.1049 114.932 56.8941C115.478 56.4688 115.999 56.0117 116.492 55.5252C116.6 55.3905 116.696 55.2455 116.776 55.0923C116.847 54.948 116.847 54.7959 116.776 54.7764C116.706 54.7569 116.527 54.8232 116.386 54.8973L115.946 55.1157L114.417 55.8567C113.98 56.0634 113.637 56.2467 113.375 56.3364C113.236 56.4004 113.087 56.4425 112.935 56.4612Z" fill="#EB996E"/>
<path d="M221.791 163.598H197.104V166.991H221.791V163.598Z" fill="#263238"/>
<path d="M221.831 167.03H197.062V163.555H221.831V167.03ZM197.148 166.956H221.745V163.649H197.148V166.956Z" fill="#263238"/>
<path d="M199.394 165.86L202.947 183.387H216.094L219.526 166.987L199.394 165.86Z" fill="#263238"/>
<path d="M199.394 181.729L201.289 184.335H217.268L219.526 181.729H199.394Z" fill="#455A64"/>
<path d="M208.52 166.371C208.469 166.371 208.407 158.251 208.379 148.236C208.352 138.221 208.379 130.097 208.418 130.097C208.457 130.097 208.528 138.217 208.555 148.236C208.582 158.255 208.567 166.371 208.52 166.371Z" fill="#263238"/>
<path d="M214.019 146.048C214.003 146.114 213.98 146.178 213.953 146.239L213.73 146.762C213.683 146.879 213.629 147.004 213.57 147.152L213.407 147.616C213.348 147.78 213.282 147.955 213.215 148.143C213.149 148.33 213.098 148.533 213.032 148.747C212.739 149.739 212.508 150.749 212.342 151.77C212.148 153.022 212.018 154.283 211.952 155.549C211.862 157.851 211.927 160.158 212.147 162.452C212.229 163.333 212.307 164.047 212.365 164.538C212.393 164.768 212.412 164.956 212.428 165.104C212.433 165.17 212.433 165.236 212.428 165.303C212.402 165.242 212.387 165.177 212.381 165.112C212.357 164.963 212.326 164.776 212.287 164.546C212.205 164.059 212.108 163.345 212.014 162.463C211.767 160.161 211.696 157.843 211.804 155.529C211.866 154.257 211.996 152.989 212.194 151.731C212.369 150.704 212.614 149.69 212.927 148.696C212.993 148.486 213.052 148.283 213.122 148.096L213.325 147.569C213.391 147.406 213.449 147.253 213.504 147.109C213.559 146.965 213.629 146.848 213.68 146.719L213.933 146.208C213.956 146.152 213.985 146.098 214.019 146.048V146.048Z" fill="#263238"/>
<path d="M213.387 139.48C213.366 139.572 213.34 139.661 213.309 139.75C213.243 139.937 213.157 140.186 213.052 140.502C212.993 140.67 212.931 140.849 212.864 141.048L212.666 141.703C212.521 142.175 212.354 142.706 212.205 143.31C212.123 143.607 212.042 143.923 211.956 144.246C211.87 144.57 211.804 144.921 211.726 145.276C211.554 145.982 211.429 146.75 211.269 147.55C210.996 149.164 210.758 150.946 210.591 152.826C210.423 154.706 210.368 156.508 210.345 158.146C210.322 159.784 210.345 161.266 210.427 162.49C210.45 163.111 210.489 163.66 210.521 164.16C210.552 164.659 210.579 165.072 210.61 165.419C210.641 165.766 210.657 166.016 210.673 166.199C210.682 166.291 210.682 166.384 210.673 166.476C210.65 166.387 210.636 166.295 210.63 166.203L210.536 165.423C210.493 165.08 210.45 164.643 210.415 164.167C210.38 163.692 210.326 163.118 210.294 162.498C210.212 161.262 210.177 159.768 210.173 158.142C210.17 156.516 210.251 154.698 210.407 152.815C210.563 150.931 210.821 149.137 211.102 147.522C211.265 146.719 211.394 145.962 211.574 145.241C211.659 144.886 211.737 144.543 211.815 144.215C211.893 143.887 211.995 143.575 212.077 143.275C212.233 142.675 212.408 142.14 212.564 141.672L212.775 141.021C212.849 140.826 212.919 140.631 212.978 140.479L213.266 139.738C213.301 139.65 213.342 139.564 213.387 139.48V139.48Z" fill="#263238"/>
<path d="M206.956 167.806V167.712C206.956 167.638 206.956 167.549 206.933 167.432C206.913 167.174 206.89 166.815 206.858 166.359C206.8 165.411 206.718 164.062 206.613 162.401C206.398 159.062 206.086 154.449 205.525 149.375C205.24 146.84 204.905 144.429 204.561 142.245C204.374 141.157 204.21 140.12 204.019 139.153C203.828 138.186 203.66 137.289 203.485 136.47C203.309 135.651 203.142 134.91 202.997 134.266C202.853 133.623 202.717 133.065 202.607 132.609C202.498 132.152 202.412 131.829 202.354 131.563C202.327 131.45 202.307 131.361 202.292 131.29C202.276 131.22 202.272 131.197 202.292 131.197C202.304 131.226 202.315 131.256 202.323 131.286C202.323 131.357 202.37 131.442 202.401 131.556C202.471 131.805 202.568 132.152 202.689 132.593C202.81 133.034 202.966 133.595 203.118 134.243C203.27 134.89 203.462 135.623 203.633 136.446C203.805 137.269 204.023 138.158 204.187 139.125C204.351 140.093 204.554 141.13 204.745 142.222C205.1 144.406 205.439 146.816 205.724 149.355C206.285 154.425 206.578 159.054 206.761 162.397C206.851 164.066 206.913 165.419 206.952 166.355C206.952 166.812 206.983 167.174 206.991 167.432C206.991 167.545 206.991 167.638 206.991 167.712C206.986 167.746 206.974 167.778 206.956 167.806Z" fill="#263238"/>
<path d="M208.317 134.001C208.212 132.851 207.05 131.981 205.891 131.969C205.313 131.995 204.748 132.152 204.239 132.428C203.73 132.705 203.291 133.093 202.955 133.564C202.29 134.514 201.81 135.58 201.539 136.708C200.696 139.408 200.4 142.249 200.669 145.065C201.001 147.866 202.136 150.623 204.144 152.6C204.472 152.924 204.897 153.244 205.345 153.15C205.586 153.077 205.804 152.943 205.977 152.76C207.943 150.958 209.502 148.757 210.549 146.304C211.595 143.851 212.106 141.203 212.046 138.537C212.014 137.472 211.874 136.365 211.285 135.479C210.696 134.594 209.335 133.65 208.317 134.005" fill="#031D44"/>
<path d="M199.69 124.785L198.064 127.734C198.025 127.8 197.974 127.878 197.896 127.886C197.818 127.894 197.748 127.812 197.701 127.741C196.266 125.539 194.836 123.337 193.411 121.135L194.402 120.573L199.69 124.785Z" fill="#031D44"/>
<g opacity="0.2">
<path opacity="0.2" d="M199.69 124.785L198.064 127.734C198.025 127.8 197.974 127.878 197.896 127.886C197.818 127.894 197.748 127.812 197.701 127.741C196.266 125.539 194.836 123.337 193.411 121.135L194.402 120.573L199.69 124.785Z" fill="black"/>
</g>
<path d="M208.418 130.097L193.743 121.435C193.581 121.367 193.452 121.238 193.384 121.077C193.325 120.858 193.489 120.651 193.645 120.488C194.654 119.44 195.877 118.623 197.231 118.091C198.584 117.56 200.036 117.326 201.488 117.407C202.939 117.512 204.343 117.968 205.578 118.737C206.813 119.505 207.843 120.562 208.578 121.818C209.994 124.349 210.041 127.695 208.418 130.097" fill="#031D44"/>
<path d="M195.857 118.674C195.919 118.656 195.983 118.647 196.048 118.647C196.176 118.647 196.364 118.62 196.602 118.624C197.285 118.614 197.968 118.668 198.641 118.783C200.876 119.162 202.957 120.17 204.639 121.69C206.322 123.21 207.535 125.178 208.138 127.363C208.32 128.021 208.443 128.693 208.504 129.372C208.512 129.515 208.512 129.658 208.504 129.801C208.495 129.915 208.456 130.026 208.391 130.121C208.437 129.876 208.444 129.627 208.415 129.38C208.33 128.709 208.192 128.047 208.001 127.399C207.264 124.928 205.762 122.755 203.713 121.19C201.664 119.625 199.171 118.75 196.594 118.69C196.122 118.678 195.857 118.69 195.857 118.674Z" fill="#263238"/>
<path d="M206.43 124.119C206.196 124.26 205.948 124.374 205.689 124.458C205.221 124.641 204.569 124.875 203.836 125.109C203.103 125.343 202.436 125.527 201.948 125.644C201.688 125.724 201.42 125.776 201.149 125.8C201.397 125.679 201.659 125.587 201.929 125.527L203.801 124.942L205.661 124.341C205.909 124.241 206.167 124.167 206.43 124.119V124.119Z" fill="#263238"/>
<path d="M204.121 117.91C204.251 118.446 204.308 118.996 204.292 119.548C204.335 120.098 204.304 120.651 204.203 121.193C204.129 120.649 204.101 120.1 204.117 119.552C204.075 119.005 204.076 118.456 204.121 117.91V117.91Z" fill="#263238"/>
<path d="M193.614 121.271C193.958 121.113 194.314 120.983 194.679 120.881C195.346 120.675 196.274 120.417 197.311 120.168C198.349 119.918 199.289 119.727 199.979 119.606C200.347 119.523 200.721 119.473 201.098 119.454C200.739 119.57 200.373 119.661 200.002 119.727C199.324 119.879 198.384 120.09 197.35 120.335C196.317 120.581 195.4 120.827 194.714 121.002C194.354 121.117 193.986 121.207 193.614 121.271V121.271Z" fill="#263238"/>
<path d="M202.225 131.505C200.966 130.546 199.628 130.359 198.048 130.421C196.464 130.523 194.913 130.92 193.474 131.591C190.997 132.675 188.673 134.27 187.195 136.532C185.717 138.794 185.198 141.789 186.306 144.25C186.392 144.508 186.572 144.725 186.809 144.859C187.083 144.94 187.377 144.917 187.635 144.796C190.451 143.88 193.287 142.952 195.872 141.513C198.458 140.074 200.817 138.077 202.206 135.464C202.562 134.846 202.789 134.163 202.873 133.455C202.91 133.103 202.872 132.746 202.76 132.41C202.648 132.074 202.466 131.765 202.225 131.505" fill="#031D44"/>
<path d="M202.253 131.208C202.187 131.24 202.119 131.267 202.05 131.29L201.461 131.493L201.032 131.634L200.533 131.829C200.178 131.973 199.753 132.117 199.328 132.328L198.637 132.644C198.399 132.753 198.162 132.889 197.908 133.034C197.397 133.283 196.882 133.603 196.348 133.931C193.987 135.389 191.888 137.235 190.139 139.391C189.749 139.898 189.359 140.366 189.047 140.841C188.887 141.075 188.724 141.294 188.583 141.52C188.443 141.746 188.31 141.957 188.193 142.164C187.928 142.554 187.729 142.944 187.542 143.295C187.452 143.462 187.362 143.618 187.284 143.766L187.089 144.156C186.976 144.383 186.887 144.57 186.816 144.714C186.784 144.78 186.748 144.844 186.707 144.905C186.725 144.834 186.75 144.765 186.781 144.699C186.846 144.55 186.928 144.359 187.027 144.125C187.086 144 187.144 143.86 187.21 143.712C187.277 143.564 187.366 143.404 187.456 143.232C187.635 142.893 187.827 142.495 188.084 142.086L188.474 141.43C188.61 141.204 188.774 140.982 188.934 140.744C189.242 140.26 189.624 139.785 190.014 139.274C190.896 138.193 191.861 137.182 192.9 136.251C193.955 135.337 195.08 134.509 196.266 133.775C196.82 133.451 197.343 133.135 197.861 132.889C198.115 132.761 198.357 132.628 198.598 132.519L199.296 132.215C199.741 132.008 200.158 131.872 200.517 131.739C200.7 131.673 200.868 131.606 201.024 131.556L201.457 131.427L202.058 131.255C202.121 131.233 202.186 131.217 202.253 131.208V131.208Z" fill="#263238"/>
<path d="M192.39 136.536C191.385 136.92 190.36 137.25 189.32 137.523C188.296 137.855 187.255 138.13 186.2 138.346C187.204 137.96 188.229 137.629 189.27 137.355C190.294 137.026 191.335 136.753 192.39 136.536V136.536Z" fill="#263238"/>
<path d="M192.265 143.322C192.212 143.006 192.19 142.686 192.198 142.367C192.179 141.774 192.179 140.959 192.198 140.054C192.218 139.149 192.273 138.334 192.323 137.745C192.331 137.425 192.372 137.106 192.444 136.793C192.47 137.113 192.47 137.434 192.444 137.753C192.421 138.4 192.397 139.188 192.37 140.058C192.343 140.927 192.331 141.719 192.312 142.367C192.322 142.686 192.307 143.005 192.265 143.322V143.322Z" fill="#263238"/>
<path d="M198.068 140.366C198.021 140.366 197.865 138.709 197.725 136.657C197.584 134.606 197.506 132.937 197.553 132.933C197.6 132.929 197.756 134.59 197.9 136.645C198.045 138.701 198.119 140.362 198.068 140.366Z" fill="#263238"/>
<path d="M190.845 132.772C191.171 132.733 191.5 132.722 191.828 132.741C192.436 132.741 193.271 132.765 194.195 132.796C195.12 132.827 195.958 132.862 196.567 132.897C196.895 132.897 197.223 132.929 197.545 132.995C197.219 133.032 196.89 133.041 196.563 133.022C195.954 133.022 195.116 133.003 194.191 132.971C193.267 132.94 192.429 132.901 191.824 132.866C191.496 132.865 191.168 132.833 190.845 132.772Z" fill="#263238"/>
<path d="M204.784 152.986C204.769 152.922 204.762 152.857 204.764 152.791C204.764 152.643 204.764 152.456 204.737 152.226C204.713 151.734 204.71 151.025 204.737 150.147C204.764 149.27 204.811 148.224 204.916 147.07C205.022 145.916 205.197 144.648 205.435 143.326C205.673 142.004 205.969 140.76 206.27 139.637C206.57 138.513 206.89 137.519 207.186 136.688C207.482 135.857 207.732 135.194 207.927 134.738L208.149 134.216C208.171 134.152 208.202 134.092 208.239 134.036C208.226 134.102 208.206 134.166 208.181 134.227L207.989 134.762C207.814 135.218 207.58 135.889 207.303 136.712C207.026 137.534 206.726 138.545 206.426 139.664C206.125 140.783 205.848 142.027 205.607 143.342C205.365 144.656 205.217 145.919 205.08 147.07C204.944 148.22 204.893 149.262 204.862 150.135C204.83 151.009 204.784 151.746 204.784 152.226C204.784 152.456 204.784 152.643 204.784 152.791C204.79 152.856 204.79 152.921 204.784 152.986Z" fill="#263238"/>
<path d="M205.564 143.377C205.396 143.615 205.199 143.831 204.979 144.02C204.589 144.41 204.062 144.906 203.446 145.448C202.83 145.99 202.276 146.454 201.831 146.782C201.613 146.973 201.374 147.139 201.118 147.277C201.31 147.059 201.523 146.86 201.753 146.684L203.313 145.315L204.873 143.931C205.087 143.726 205.318 143.541 205.564 143.377Z" fill="#263238"/>
<path d="M210.197 147.121C209.965 146.85 209.756 146.561 209.573 146.255L208.122 144.141C207.561 143.342 207.05 142.624 206.64 142.043C206.421 141.763 206.223 141.467 206.047 141.158C206.301 141.409 206.533 141.68 206.742 141.969C207.132 142.488 207.693 143.213 208.266 144.04C208.84 144.867 209.331 145.627 209.674 146.189C209.875 146.484 210.049 146.796 210.197 147.121Z" fill="#263238"/>
<path d="M207.763 135.366C207.787 135.409 206.246 136.446 204.316 137.706C202.385 138.966 200.806 139.921 200.774 139.878C200.743 139.835 202.291 138.798 204.218 137.538C206.145 136.279 207.736 135.311 207.763 135.366Z" fill="#263238"/>
<path d="M212.112 140.046C210.518 138.651 209.001 137.169 207.568 135.608C208.386 136.285 209.167 137.005 209.908 137.765C210.685 138.483 211.421 139.245 212.112 140.046Z" fill="#263238"/>
<path d="M213.208 139.953L214.53 139.843C215.47 139.767 216.383 139.488 217.205 139.024C217.607 138.788 218.024 138.58 218.453 138.4C220.091 137.741 221.92 137.858 223.679 137.769C226.566 137.623 229.395 136.9 231.998 135.643C232.149 135.573 232.276 135.459 232.361 135.315C232.63 134.82 232.127 134.379 231.69 134.11C229.459 132.734 227.189 131.341 224.67 130.659C222.15 129.976 219.264 130.093 217.104 131.579C214.569 133.323 213.648 136.907 213.204 139.953" fill="#031D44"/>
<path d="M232.388 135.152C232.311 135.124 232.236 135.089 232.166 135.047L231.538 134.719C230.992 134.434 230.208 134.009 229.198 133.549C228.045 132.984 226.844 132.522 225.61 132.168C224.1 131.732 222.519 131.6 220.957 131.778C219.394 131.953 217.917 132.587 216.714 133.6C215.774 134.479 215.023 135.541 214.506 136.72C214.146 137.509 213.826 138.316 213.547 139.138C213.446 139.415 213.368 139.637 213.309 139.805C213.286 139.884 213.255 139.962 213.216 140.035C213.229 139.953 213.249 139.872 213.274 139.793C213.329 139.621 213.395 139.403 213.481 139.114C213.735 138.281 214.039 137.465 214.393 136.669C214.903 135.469 215.657 134.389 216.609 133.498C217.83 132.455 219.337 131.801 220.934 131.622C222.517 131.433 224.122 131.566 225.653 132.012C226.895 132.374 228.1 132.852 229.252 133.44C230.239 133.931 231.015 134.368 231.549 134.676L232.162 135.031C232.241 135.064 232.317 135.105 232.388 135.152V135.152Z" fill="#263238"/>
<path d="M229.21 136.86C229.182 136.903 227.447 135.779 225.341 134.36C223.235 132.94 221.542 131.751 221.569 131.708C221.597 131.665 223.328 132.788 225.438 134.212C227.548 135.635 229.237 136.821 229.21 136.86Z" fill="#263238"/>
<path d="M227.361 131.618C226.953 131.757 226.527 131.833 226.097 131.844C225.672 131.908 225.24 131.908 224.814 131.844C225.234 131.769 225.659 131.726 226.086 131.716C226.507 131.649 226.934 131.617 227.361 131.618V131.618Z" fill="#263238"/>
<path d="M219.775 130.631C219.634 130.955 219.442 131.254 219.206 131.517C219.008 131.823 218.766 132.099 218.488 132.336C218.63 132.017 218.823 131.723 219.058 131.466C219.255 131.154 219.497 130.873 219.775 130.631V130.631Z" fill="#263238"/>
<path d="M221.327 137.882C221.035 137.76 220.755 137.608 220.493 137.429C219.994 137.125 219.323 136.681 218.594 136.158C217.864 135.635 217.236 135.136 216.776 134.773C216.519 134.59 216.279 134.384 216.059 134.157C216.334 134.304 216.596 134.476 216.839 134.672L218.687 136.014C219.405 136.536 220.068 136.996 220.551 137.324C220.825 137.489 221.084 137.675 221.327 137.882V137.882Z" fill="#263238"/>
<path d="M215.158 145.58C213.894 145.249 212.389 146.477 212.127 147.757C211.866 149.036 212.346 150.346 212.907 151.528C214.108 154.177 215.895 156.519 218.133 158.376C220.388 160.231 223.205 161.268 226.125 161.317C225.59 158.837 226.265 156.247 225.969 153.724C225.705 151.503 224.697 149.438 223.108 147.864C221.519 146.291 219.444 145.303 217.221 145.062C216.414 144.976 215.478 144.847 215.158 145.592" fill="#031D44"/>
<path d="M226.125 161.305C226.061 161.284 226.001 161.255 225.945 161.219C225.776 161.13 225.617 161.024 225.469 160.903C224.94 160.442 224.516 159.873 224.225 159.234C224.022 158.844 223.796 158.419 223.578 157.951L222.895 156.445C222.653 155.892 222.374 155.355 222.061 154.839C221.718 154.291 221.334 153.77 220.914 153.279C220.048 152.261 219.12 151.383 218.313 150.549C217.586 149.816 216.925 149.021 216.336 148.174C215.939 147.598 215.613 146.978 215.364 146.325C215.286 146.091 215.228 145.912 215.197 145.783C215.175 145.72 215.161 145.654 215.158 145.588C215.158 145.588 215.244 145.845 215.431 146.302C215.7 146.937 216.037 147.541 216.437 148.103C217.036 148.936 217.703 149.719 218.43 150.443C219.237 151.274 220.173 152.152 221.047 153.173C221.477 153.672 221.868 154.202 222.217 154.761C222.529 155.286 222.807 155.831 223.051 156.391L223.718 157.9C223.929 158.368 224.147 158.797 224.342 159.191C224.614 159.823 225.012 160.392 225.512 160.864C225.883 161.168 226.132 161.289 226.125 161.305Z" fill="#263238"/>
<path d="M219.604 159.242C219.614 158.955 219.653 158.671 219.721 158.392C219.822 157.873 219.982 157.159 220.2 156.379C220.419 155.599 220.657 154.909 220.844 154.429C220.93 154.158 221.045 153.896 221.187 153.649C221.138 153.931 221.062 154.208 220.961 154.476C220.805 154.979 220.59 155.677 220.372 156.45C220.154 157.222 219.982 157.932 219.842 158.443C219.789 158.716 219.71 158.984 219.604 159.242V159.242Z" fill="#263238"/>
<path d="M225.883 153.154C225.581 153.111 225.283 153.042 224.993 152.947C224.451 152.807 223.699 152.612 222.86 152.425C222.022 152.237 221.261 152.089 220.707 151.984C220.405 151.945 220.108 151.879 219.818 151.785C220.123 151.782 220.427 151.806 220.727 151.859C221.288 151.933 222.061 152.062 222.899 152.249C223.738 152.436 224.49 152.639 225.029 152.826C225.325 152.902 225.611 153.012 225.883 153.154V153.154Z" fill="#263238"/>
<path d="M214.9 154.921C214.915 154.59 214.961 154.26 215.037 153.938C215.15 153.333 215.326 152.507 215.563 151.598C215.801 150.689 216.051 149.878 216.246 149.301C216.339 148.981 216.46 148.67 216.609 148.373C216.555 148.7 216.474 149.022 216.367 149.336C216.199 149.925 215.977 150.736 215.731 151.641C215.485 152.546 215.302 153.365 215.158 153.961C215.101 154.288 215.015 154.609 214.9 154.921V154.921Z" fill="#263238"/>
<path d="M222.985 147.846C222.985 147.893 221.402 147.768 219.475 147.561C217.548 147.355 215.965 147.148 215.965 147.101C215.965 147.054 217.548 147.179 219.475 147.386C221.402 147.593 222.989 147.799 222.985 147.846Z" fill="#263238"/>
<path d="M221.831 166.975C221.831 167.022 216.285 167.061 209.448 167.061C202.611 167.061 197.062 167.022 197.062 166.975C197.062 166.929 202.608 166.886 209.448 166.886C216.289 166.886 221.831 166.925 221.831 166.975Z" fill="#455A64"/>
<path d="M217.973 174.109C217.973 174.159 214.237 174.198 209.628 174.198C205.018 174.198 201.285 174.159 201.285 174.109C201.285 174.058 205.022 174.023 209.628 174.023C214.233 174.023 217.973 174.062 217.973 174.109Z" fill="#455A64"/>
<path d="M217.825 175.146C217.825 175.193 214.155 175.232 209.635 175.232C205.115 175.232 201.445 175.193 201.445 175.146C201.445 175.1 205.115 175.057 209.635 175.057C214.155 175.057 217.825 175.08 217.825 175.146Z" fill="#455A64"/>
<path d="M218.118 173.27C218.118 173.317 214.253 173.356 209.487 173.356C204.721 173.356 200.856 173.317 200.856 173.27C200.856 173.224 204.721 173.181 209.487 173.181C214.253 173.181 218.118 173.22 218.118 173.27Z" fill="#455A64"/>
<path d="M216.484 22.9957C216.484 23.0542 213.867 23.0854 210.634 23.0698C207.401 23.0542 204.784 22.9918 204.784 22.9372C204.784 22.8826 207.401 22.8475 210.634 22.8631C213.867 22.8787 216.484 22.9411 216.484 22.9957Z" fill="#263238"/>
<path d="M210.677 28.8104C210.622 28.8104 210.552 26.1974 210.517 22.9604C210.482 19.7234 210.517 17.1104 210.56 17.1104C210.603 17.1104 210.688 19.7234 210.72 22.9604C210.751 26.1974 210.735 28.8104 210.677 28.8104Z" fill="#263238"/>
<path d="M222.63 110.281C221.406 109.771 220.208 109.198 219.042 108.565C217.84 107.992 216.668 107.357 215.532 106.662C215.556 106.615 217.162 107.384 219.12 108.382C221.078 109.38 222.658 110.235 222.63 110.281Z" fill="#263238"/>
<path d="M217.334 112.044C217.825 110.811 218.381 109.604 218.999 108.429C219.554 107.228 220.169 106.056 220.844 104.919C220.351 106.152 219.795 107.358 219.179 108.534C218.623 109.735 218.008 110.906 217.334 112.044V112.044Z" fill="#263238"/>
<path d="M82.6358 82.8214C82.6358 82.876 80.7872 83.6677 78.4667 84.592C76.1462 85.5163 74.243 86.2261 74.2235 86.1754C74.204 86.1247 76.0682 85.3291 78.3926 84.4048C80.717 83.4805 82.6124 82.7707 82.6358 82.8214Z" fill="#263238"/>
<path d="M78.3302 80.2867C78.3302 80.2867 78.2639 80.1736 78.1235 79.9942C77.9247 79.7458 77.6512 79.5681 77.3435 79.4872C77.0963 79.4212 76.8355 79.4253 76.5905 79.4989C76.3454 79.5725 76.1256 79.7128 75.9557 79.9041C75.7857 80.0954 75.6722 80.3302 75.628 80.5822C75.5837 80.8342 75.6103 81.0936 75.7049 81.3313C75.7994 81.5691 75.9582 81.7759 76.1635 81.9287C76.3688 82.0815 76.6125 82.1742 76.8674 82.1965C77.1223 82.2188 77.3784 82.1698 77.6071 82.055C77.8358 81.9402 78.0281 81.7641 78.1625 81.5463C78.3325 81.2754 78.4092 80.9563 78.3809 80.6376C78.3809 80.4115 78.3146 80.2905 78.3302 80.2827C78.4015 80.3859 78.4457 80.5052 78.4589 80.6298C78.5216 80.9699 78.4607 81.3213 78.2873 81.6204C78.159 81.8477 77.975 82.0386 77.7526 82.1751C77.5301 82.3115 77.2766 82.3891 77.0159 82.4004C76.6942 82.4123 76.3767 82.3244 76.107 82.1487C75.8373 81.973 75.6285 81.7181 75.5093 81.4191C75.3901 81.1201 75.3664 80.7915 75.4413 80.4784C75.5162 80.1653 75.6861 79.8831 75.9278 79.6705C76.1229 79.4989 76.3584 79.3798 76.6123 79.3246C76.8661 79.2693 77.1299 79.2796 77.3786 79.3546C77.7104 79.4504 77.9969 79.6621 78.1859 79.9513C78.2599 80.0501 78.3093 80.165 78.3302 80.2867V80.2867Z" fill="#263238"/>
<path d="M81.2553 87.6224C81.2358 87.6224 81.189 87.5093 81.0486 87.3299C80.8509 87.0803 80.5769 86.9023 80.2686 86.8229C80.0446 86.7656 79.81 86.7644 79.5855 86.8195C79.3609 86.8746 79.1535 86.9843 78.9816 87.1388C78.7728 87.3272 78.6267 87.5749 78.5629 87.8487C78.4992 88.1226 78.5207 88.4093 78.6248 88.6705C78.7289 88.9317 78.9104 89.1548 79.145 89.3098C79.3796 89.4647 79.656 89.5441 79.9371 89.5373C80.171 89.5352 80.4006 89.4744 80.605 89.3606C80.8094 89.2469 80.982 89.0837 81.1071 88.886C81.2752 88.6143 81.3517 88.2958 81.3255 87.9773C81.3255 87.7511 81.2553 87.6302 81.2748 87.6224C81.3456 87.7243 81.3898 87.8423 81.4035 87.9656C81.4649 88.3075 81.4027 88.66 81.228 88.9601C81.1006 89.1874 80.9174 89.3783 80.6955 89.5148C80.4737 89.6513 80.2207 89.7289 79.9605 89.7401C79.6388 89.752 79.3213 89.664 79.0516 89.4883C78.7818 89.3127 78.5731 89.0578 78.4539 88.7588C78.3347 88.4598 78.3109 88.1312 78.3859 87.8181C78.4608 87.505 78.6307 87.2228 78.8724 87.0101C79.0685 86.8404 79.3039 86.7223 79.5573 86.6665C79.8106 86.6106 80.0738 86.6188 80.3232 86.6903C80.6542 86.79 80.9399 87.0025 81.1305 87.2909C81.1981 87.3898 81.2409 87.5035 81.2553 87.6224V87.6224Z" fill="#263238"/>
<path d="M104.441 42.2809C104.441 42.2809 104.484 42.3862 104.558 42.589C104.632 42.7918 104.741 43.0999 104.881 43.4899C105.162 44.2699 105.576 45.4399 106.102 46.9531L106.129 47.0233H106.051L101.044 46.3291H101.095C99.3474 47.7015 97.2787 48.6049 95.0846 48.9538C94.4667 49.0529 93.8423 49.1063 93.2165 49.1137C92.8967 49.1137 92.573 49.0864 92.2454 49.0786L91.7579 49.0552C91.5941 49.0552 91.4303 49.0084 91.2665 48.985C89.8961 48.8179 88.5634 48.4224 87.3236 47.815C86.0003 47.174 84.7919 46.3188 83.7473 45.2839C82.366 43.9047 81.3097 42.2348 80.6554 40.3957C80.0011 38.5566 79.7653 36.5947 79.9652 34.653C80.1651 32.7113 80.7956 30.8386 81.8109 29.1714C82.8261 27.5042 84.2005 26.0844 85.8338 25.0156C87.0005 24.2487 88.2851 23.6783 89.6363 23.3269L90.1316 23.1982L90.3773 23.1358L90.6269 23.0968L91.6253 22.9486C91.9568 22.9174 92.2883 22.9096 92.6198 22.8901C92.947 22.8667 93.2754 22.8667 93.6026 22.8901C93.9263 22.9174 94.2539 22.8901 94.5698 22.9603L95.5175 23.1085C95.8295 23.1592 96.1337 23.2567 96.4379 23.3308L96.8903 23.4478C97.0385 23.4946 97.1828 23.5531 97.3271 23.6038C100.533 24.7154 103.179 27.0339 104.702 30.0661C105.497 31.6462 105.964 33.3708 106.075 35.1361C106.223 37.3207 105.804 39.5065 104.858 41.4814C104.729 41.7427 104.628 41.9377 104.558 42.0625C104.488 42.1873 104.441 42.2575 104.441 42.2575C104.441 42.2575 104.468 42.1912 104.534 42.0586C104.601 41.926 104.702 41.7271 104.819 41.4658C105.167 40.7021 105.442 39.9068 105.638 39.0907C105.955 37.8007 106.063 36.4681 105.958 35.1439C105.794 32.6024 104.883 30.1658 103.34 28.1404C101.796 26.1149 99.6877 24.5909 97.2803 23.7598C97.136 23.7091 96.9956 23.6545 96.8474 23.6077L96.4028 23.4907C96.1025 23.4205 95.8022 23.323 95.4941 23.2762L94.5581 23.1319C94.2461 23.0773 93.9263 23.089 93.6026 23.0656C93.2807 23.0402 92.9573 23.0402 92.6354 23.0656C92.3117 23.0656 91.9841 23.0929 91.6565 23.1202L90.6737 23.2723L90.428 23.3113L90.1823 23.3737L89.6948 23.4985C88.365 23.8459 87.1014 24.4099 85.9547 25.1677C84.0362 26.4165 82.4842 28.1531 81.458 30.1993C80.4317 32.2456 79.968 34.5279 80.1145 36.8124C80.261 39.0969 81.0123 41.3014 82.2914 43.1998C83.5706 45.0983 85.3315 46.6225 87.3938 47.6161C88.619 48.222 89.9374 48.6176 91.2938 48.7861C91.4537 48.8095 91.6136 48.8407 91.7774 48.8563L92.261 48.8797C92.5847 48.8797 92.9006 48.9265 93.2165 48.9187C93.8344 48.9141 94.451 48.8632 95.0612 48.7666C97.2325 48.4325 99.2825 47.5492 101.017 46.2004H101.04H101.044L106.059 46.918L106.009 46.9765C105.498 45.4672 105.104 44.2933 104.839 43.4665L104.538 42.5656C104.468 42.3862 104.441 42.2809 104.441 42.2809Z" fill="#263238"/>
<path d="M93.6962 32.9599C93.7848 33.0029 93.8595 33.07 93.9119 33.1534C93.9643 33.2368 93.9922 33.3333 93.9925 33.4318V36.0292C93.9919 36.1094 93.9728 36.1885 93.9367 36.2601C93.9006 36.3318 93.8484 36.3942 93.7843 36.4425C93.7202 36.4908 93.6458 36.5236 93.567 36.5385C93.4881 36.5534 93.4069 36.55 93.3295 36.5284C93.1154 36.4736 92.8924 36.4627 92.674 36.4962C92.4555 36.5297 92.246 36.607 92.0581 36.7234C91.886 36.8235 91.7358 36.9573 91.6165 37.1168C91.4973 37.2763 91.4114 37.4582 91.3639 37.6516C91.3312 37.8489 91.3377 38.0507 91.3832 38.2455C91.4287 38.4403 91.5123 38.6241 91.6291 38.7865C91.7524 38.9696 91.9106 39.1265 92.0947 39.2483C92.2787 39.3701 92.485 39.4544 92.7016 39.4963C93.1417 39.5403 93.5837 39.4335 93.955 39.1932C94.3264 38.953 94.605 38.5937 94.7452 38.1742C94.7929 38.0496 94.8864 37.9479 95.0065 37.89C95.1267 37.8321 95.2645 37.8223 95.3916 37.8627C95.5187 37.9031 95.6256 37.9906 95.6903 38.1072C95.7551 38.2239 95.7727 38.3608 95.7397 38.4901C95.5219 39.1461 95.0844 39.7069 94.501 40.0777C93.9177 40.4486 93.2243 40.6069 92.5378 40.5259C92.1816 40.4627 91.8417 40.3287 91.5382 40.1318C91.2347 39.9348 90.9739 39.6789 90.7711 39.3793C90.5722 39.0998 90.4316 38.7831 90.3579 38.448C90.2842 38.113 90.2788 37.7665 90.3421 37.4293C90.4185 37.0968 90.5616 36.7833 90.7627 36.5078C90.9638 36.2323 91.2188 36.0004 91.5121 35.8264C91.9452 35.5661 92.4421 35.4311 92.9473 35.4364V33.4318C92.9473 33.2939 93.0019 33.1615 93.099 33.0636C93.1962 32.9657 93.3281 32.9102 93.466 32.9092C93.5456 32.9088 93.6242 32.9261 93.6962 32.9599V32.9599Z" fill="#031D44"/>
<path d="M92.9787 31.8679C92.9764 31.7829 92.9994 31.6992 93.0447 31.6273C93.0901 31.5554 93.1558 31.4986 93.2335 31.4641C93.3112 31.4296 93.3974 31.419 93.4811 31.4336C93.5649 31.4482 93.6424 31.4873 93.7039 31.5461C93.7653 31.6048 93.808 31.6804 93.8264 31.7634C93.8447 31.8464 93.8381 31.933 93.8072 32.0122C93.7763 32.0914 93.7225 32.1596 93.6528 32.2082C93.5831 32.2568 93.5005 32.2836 93.4155 32.2852C93.3026 32.2863 93.1938 32.2433 93.1123 32.1653C93.0307 32.0874 92.9827 31.9806 92.9787 31.8679V31.8679Z" fill="#031D44"/>
</svg>
