<svg width="294" height="195" viewBox="0 0 294 195" fill="none" xmlns="http://www.w3.org/2000/svg">
<path d="M277.703 171.363H16V171.494H277.703V171.363Z" fill="#E6E6E6"/>
<path d="M261.163 175.979H251.339V176.11H261.163V175.979Z" fill="#E6E6E6"/>
<path d="M215.815 179.57H211.267V179.701H215.815V179.57Z" fill="#E6E6E6"/>
<path d="M172.666 177.764H162.533V177.895H172.666V177.764Z" fill="#E6E6E6"/>
<path d="M80.9653 177.696H58.3594V177.827H80.9653V177.696Z" fill="#E6E6E6"/>
<path d="M53.7011 177.696H50.3879V177.827H53.7011V177.696Z" fill="#E6E6E6"/>
<path d="M164.113 174.598H115.081V174.728H164.113V174.598Z" fill="#E6E6E6"/>
<path d="M140.047 148.019H38.9827C38.191 148.018 37.4321 147.702 36.8728 147.142C36.3134 146.582 35.9993 145.822 35.9993 145.031V2.96248C36.0062 2.17529 36.3234 1.42261 36.882 0.867921C37.4406 0.313237 38.1955 0.0013485 38.9827 0H140.047C140.84 0 141.6 0.314875 142.16 0.875355C142.721 1.43583 143.036 2.19601 143.036 2.98865V145.031C143.036 145.823 142.721 146.583 142.16 147.144C141.6 147.704 140.84 148.019 140.047 148.019V148.019ZM38.9827 0.104682C38.2257 0.106068 37.5001 0.407767 36.9653 0.943558C36.4305 1.47935 36.1301 2.20545 36.1301 2.96248V145.031C36.1301 145.788 36.4305 146.514 36.9653 147.049C37.5001 147.585 38.2257 147.887 38.9827 147.888H140.047C140.805 147.887 141.531 147.585 142.066 147.05C142.602 146.514 142.904 145.788 142.905 145.031V2.96248C142.904 2.20497 142.602 1.47888 142.066 0.943238C141.531 0.407597 140.805 0.106065 140.047 0.104682H38.9827Z" fill="#E6E6E6"/>
<path d="M253.265 148.019H152.195C151.403 148.018 150.644 147.702 150.083 147.142C149.523 146.582 149.208 145.823 149.207 145.031V2.96248C149.215 2.17481 149.533 1.42213 150.093 0.867594C150.652 0.313054 151.407 0.00133379 152.195 0H253.265C254.051 0.00272406 254.805 0.315221 255.362 0.869758C255.92 1.4243 256.236 2.17619 256.243 2.96248V145.031C256.243 145.821 255.93 146.58 255.371 147.14C254.813 147.7 254.056 148.016 253.265 148.019V148.019ZM152.195 0.104682C151.438 0.106065 150.712 0.407597 150.176 0.943238C149.64 1.47888 149.339 2.20497 149.337 2.96248V145.031C149.339 145.788 149.64 146.514 150.176 147.05C150.712 147.585 151.438 147.887 152.195 147.888H253.265C254.022 147.887 254.748 147.585 255.284 147.05C255.82 146.514 256.121 145.788 256.123 145.031V2.96248C256.121 2.20497 255.82 1.47888 255.284 0.943238C254.748 0.407597 254.022 0.106065 253.265 0.104682H152.195Z" fill="#E6E6E6"/>
<path d="M152.588 9.77734H46.7292V85.2158H152.588V9.77734Z" fill="#FAFAFA"/>
<path d="M154.545 9.77734H47.645V85.2158H154.545V9.77734Z" fill="#F5F5F5"/>
<path d="M151.803 82.133V12.855L50.3879 12.855V82.133H151.803Z" fill="#FAFAFA"/>
<path d="M68.8538 82.133L84.9433 12.855H106.037L89.947 82.133H68.8538Z" fill="white"/>
<path d="M93.3596 82.133L109.454 12.855H118.98L102.886 82.133H93.3596Z" fill="white"/>
<path d="M151.803 82.133V12.855H151.452V82.133H151.803Z" fill="#FAFAFA"/>
<path d="M44.6724 9.65172V39.5487H52.581C52.581 39.5487 66.7706 30.2791 70.0209 11.2115C70.0997 10.7548 70.0774 10.2864 69.9557 9.83928C69.834 9.39213 69.6158 8.97709 69.3164 8.62335C69.0171 8.26961 68.6438 7.98576 68.223 7.79177C67.8021 7.59778 67.3439 7.49837 66.8805 7.50052H46.8236C46.253 7.50052 45.7059 7.72716 45.3024 8.13059C44.899 8.53402 44.6724 9.08119 44.6724 9.65172Z" fill="#E0E0E0"/>
<path d="M44.6724 94.4433V41.9614H52.581C52.581 41.9614 68.6339 72.8685 70.492 94.4433H44.6724Z" fill="#E0E0E0"/>
<path d="M52.3505 39.5483H44.96C44.5235 39.5483 44.1697 39.9022 44.1697 40.3387V41.1709C44.1697 41.6074 44.5235 41.9612 44.96 41.9612H52.3505C52.787 41.9612 53.1409 41.6074 53.1409 41.1709V40.3387C53.1409 39.9022 52.787 39.5483 52.3505 39.5483Z" fill="#F5F5F5"/>
<path d="M156.796 9.6517V39.5486H148.872C148.872 39.5486 134.662 30.2791 131.432 11.2114C131.354 10.7549 131.377 10.2869 131.499 9.84013C131.621 9.39338 131.84 8.97872 132.139 8.6252C132.438 8.27168 132.811 7.98783 133.231 7.79355C133.652 7.59927 134.109 7.49925 134.573 7.5005H154.65C155.22 7.50326 155.765 7.73096 156.167 8.13394C156.569 8.53692 156.795 9.08249 156.796 9.6517V9.6517Z" fill="#E0E0E0"/>
<path d="M156.796 94.4433V41.9614H148.872C148.872 41.9614 132.824 72.8685 130.961 94.4433H156.796Z" fill="#E0E0E0"/>
<path d="M149.102 41.9561H156.493C156.929 41.9561 157.283 41.6022 157.283 41.1657V40.3335C157.283 39.897 156.929 39.5432 156.493 39.5432H149.102C148.666 39.5432 148.312 39.897 148.312 40.3335V41.1657C148.312 41.6022 148.666 41.9561 149.102 41.9561Z" fill="#F5F5F5"/>
<path d="M154.404 103.98H137.011V171.363H154.404V103.98Z" fill="#FAFAFA"/>
<path d="M149.762 171.363H154.404V163.58H144.894L149.762 171.363Z" fill="#F4F8FF"/>
<path d="M71.1931 103.98H53.8003V171.363H71.1931V103.98Z" fill="#E0E0E0"/>
<path d="M154.404 103.98H67.1421V168.683H154.404V103.98Z" fill="#FAFAFA"/>
<path d="M93.3596 92.5381C93.3596 98.819 99.4102 103.98 106.811 103.98H113.49C120.886 103.98 126.936 98.8294 126.936 92.5381H93.3596Z" fill="#EBEBEB"/>
<path d="M89.4864 78.1602H102.048C102.048 78.1602 99.8655 83.9176 99.8655 87.3093C99.8655 90.701 109.423 103.98 95.7672 103.98C82.1116 103.98 91.669 90.6957 91.669 87.3093C91.669 83.9229 89.4864 78.1602 89.4864 78.1602Z" fill="#E0E0E0"/>
<path d="M150.803 107.921H70.7429V124.235H150.803V107.921Z" fill="#EBEBEB"/>
<path d="M71.7847 171.363H67.1421V163.58H76.6576L71.7847 171.363Z" fill="#FAFAFA"/>
<path d="M108.313 116.076C108.313 116.562 108.457 117.038 108.728 117.442C108.998 117.847 109.382 118.162 109.832 118.348C110.281 118.535 110.776 118.583 111.253 118.488C111.73 118.394 112.168 118.159 112.512 117.815C112.857 117.471 113.091 117.033 113.186 116.556C113.281 116.078 113.232 115.584 113.046 115.134C112.86 114.685 112.544 114.301 112.14 114.03C111.735 113.76 111.26 113.616 110.773 113.616C110.121 113.616 109.495 113.875 109.034 114.336C108.572 114.798 108.313 115.423 108.313 116.076V116.076Z" fill="#FAFAFA"/>
<path d="M150.803 128.177H70.7429V144.491H150.803V128.177Z" fill="#EBEBEB"/>
<path d="M108.313 136.332C108.313 136.818 108.457 137.294 108.728 137.698C108.998 138.103 109.382 138.418 109.832 138.604C110.281 138.791 110.776 138.839 111.253 138.744C111.73 138.649 112.168 138.415 112.512 138.071C112.857 137.727 113.091 137.289 113.186 136.812C113.281 136.334 113.232 135.84 113.046 135.39C112.86 134.941 112.544 134.556 112.14 134.286C111.735 134.016 111.26 133.872 110.773 133.872C110.121 133.872 109.495 134.131 109.034 134.592C108.572 135.053 108.313 135.679 108.313 136.332V136.332Z" fill="#FAFAFA"/>
<path d="M150.803 148.427H70.7429V164.742H150.803V148.427Z" fill="#EBEBEB"/>
<path d="M110.773 159.047C112.132 159.047 113.233 157.946 113.233 156.587C113.233 155.229 112.132 154.127 110.773 154.127C109.414 154.127 108.313 155.229 108.313 156.587C108.313 157.946 109.414 159.047 110.773 159.047Z" fill="#FAFAFA"/>
<path d="M209.597 8.8667H170.745V36.5235H209.597V8.8667Z" fill="#E0E0E0"/>
<path d="M212.769 8.8667H172.954V36.5235H212.769V8.8667Z" fill="#F5F5F5"/>
<path d="M210.231 33.9845V11.4048L175.492 11.4048V33.9845H210.231Z" fill="white"/>
<path d="M204.117 27.4055V17.979H181.606V27.4055H204.117Z" fill="#F5F5F5"/>
<path d="M241.117 22.6948H217.469V47.4938H241.117V22.6948Z" fill="#E0E0E0"/>
<path d="M244.299 22.6948H219.683V47.4938H244.299V22.6948Z" fill="#F5F5F5"/>
<path d="M241.761 44.9553V25.2334H222.222V44.9553H241.761Z" fill="white"/>
<path d="M228.335 35.0941C228.335 34.2233 228.681 33.388 229.296 32.7717C229.911 32.1554 230.746 31.8085 231.617 31.8071H232.36C233.231 31.8085 234.066 32.1554 234.681 32.7717C235.296 33.388 235.642 34.2233 235.642 35.0941V35.0941C235.642 35.9645 235.296 36.7992 234.681 37.4147C234.065 38.0301 233.231 38.3759 232.36 38.3759H231.643C231.21 38.3793 230.78 38.297 230.379 38.1336C229.978 37.9702 229.613 37.7291 229.306 37.424C228.998 37.1189 228.754 36.7559 228.588 36.3561C228.421 35.9562 228.335 35.5273 228.335 35.0941V35.0941Z" fill="#F5F5F5"/>
<path d="M277.703 55.9258H215.261H203.908V70.3561H192.555V84.7864H181.203V99.2167H169.85V113.647H158.497V128.072H147.145V142.502H135.792V156.933H124.439V171.363H135.792H277.703V55.9258Z" fill="#FAFAFA"/>
<path d="M187.981 156.933H123.272V161.261H187.981V156.933Z" fill="#EBEBEB"/>
<path d="M199.333 142.502H134.625V146.831H199.333V142.502Z" fill="#EBEBEB"/>
<path d="M210.686 128.072H145.977V132.401H210.686V128.072Z" fill="#EBEBEB"/>
<path d="M222.039 113.642H157.33V117.971H222.039V113.642Z" fill="#EBEBEB"/>
<path d="M233.391 99.2168H168.683V103.545H233.391V99.2168Z" fill="#EBEBEB"/>
<path d="M244.744 84.7866H180.035V89.1152H244.744V84.7866Z" fill="#EBEBEB"/>
<path d="M256.097 70.3564H191.388V74.685H256.097V70.3564Z" fill="#EBEBEB"/>
<path d="M267.45 55.9258H202.741V60.2543H267.45V55.9258Z" fill="#EBEBEB"/>
<path d="M266.35 55.9258V70.3561H254.997V84.7864H243.645V99.2167H232.292V113.647H220.939V128.072H209.587V142.502H198.234V156.933H186.881V171.363H198.234H277.703V70.3561V55.9258H266.35Z" fill="white"/>
<path d="M146.851 195C202.899 195 248.334 192.347 248.334 189.075C248.334 185.803 202.899 183.15 146.851 183.15C90.8037 183.15 45.3682 185.803 45.3682 189.075C45.3682 192.347 90.8037 195 146.851 195Z" fill="#F5F5F5"/>
<path d="M207.122 56.0046C207.855 58.4594 211.634 63.0549 211.932 66.3994C212.23 69.744 205.787 75.0932 205.787 75.0932C205.787 75.0932 200.972 58.9932 203.987 57.1142C207.002 55.2352 207.122 56.0046 207.122 56.0046Z" fill="#263238"/>
<path d="M193.89 73.3971C192.749 74.3497 191.629 75.1505 190.462 75.9722C189.295 76.794 188.091 77.5425 186.866 78.2438C185.637 78.9711 184.37 79.6333 183.071 80.2275C182.412 80.5259 181.758 80.819 181.077 81.0754C180.742 81.2115 180.402 81.3424 180.057 81.4575L179.01 81.8239C178.115 82.0742 177.178 82.1418 176.257 82.0228C175.486 81.9327 174.723 81.7857 173.975 81.5831C172.579 81.1969 171.213 80.7106 169.887 80.1281C167.313 79.0043 164.83 77.6831 162.46 76.1764L163.438 74.3549C164.674 74.8783 165.94 75.4017 167.197 75.8571C168.453 76.3125 169.719 76.794 170.986 77.1865C172.221 77.5913 173.479 77.9199 174.755 78.1706C175.34 78.285 175.933 78.3567 176.529 78.3851C176.973 78.4196 177.42 78.3735 177.848 78.2491C179.042 77.7922 180.209 77.2679 181.344 76.6788C181.925 76.3753 182.501 76.0665 183.066 75.7315C183.631 75.3965 184.207 75.072 184.767 74.7265C185.893 74.0304 186.992 73.2924 188.08 72.5335C189.169 71.7745 190.253 70.9633 191.221 70.1938L193.89 73.3971Z" fill="#E58A7B"/>
<path d="M196.654 67.8231C195.356 66.8077 189.985 70.1313 188.358 71.5184L189.546 78.7047C189.546 78.7047 197.266 75.4701 197.727 73.2613C198.213 70.9531 197.622 68.5978 196.654 67.8231Z" fill="#CFD8DC"/>
<path opacity="0.2" d="M196.654 67.8231C195.356 66.8077 189.985 70.1313 188.358 71.5184L189.546 78.7047C189.546 78.7047 197.266 75.4701 197.727 73.2613C198.213 70.9531 197.622 68.5978 196.654 67.8231Z" fill="black"/>
<path d="M214.716 89.5707L198.417 92.7478C189.996 69.943 191.828 69.1945 191.828 69.1945C193.012 68.5436 194.236 67.9668 195.492 67.4672L195.711 67.3835C196.758 67.0014 196.968 66.9438 198.36 66.5356C200.757 65.9651 202.992 65.4888 205.761 65.0962L206.284 65.0229C206.808 64.9601 207.284 64.9078 207.766 64.8607C208.09 64.824 208.415 64.8031 208.723 64.7822L209.77 64.7246C211.56 64.6356 212.843 64.6618 212.843 64.6618C212.345 78.9037 213.151 82.9915 214.716 89.5707Z" fill="#CFD8DC"/>
<path opacity="0.2" d="M214.716 89.5707L198.417 92.7478C189.996 69.943 191.828 69.1945 191.828 69.1945C193.012 68.5436 194.236 67.9668 195.492 67.4672L195.711 67.3835C196.758 67.0014 196.968 66.9438 198.36 66.5356C200.757 65.9651 202.992 65.4888 205.761 65.0962L206.284 65.0229C206.808 64.9601 207.284 64.9078 207.766 64.8607C208.09 64.824 208.415 64.8031 208.723 64.7822L209.77 64.7246C211.56 64.6356 212.843 64.6618 212.843 64.6618C212.345 78.9037 213.151 82.9915 214.716 89.5707Z" fill="black"/>
<path d="M201.951 57.643C200.904 59.3755 204.698 60.1763 206.944 58.4019C208.739 56.9783 208.315 53.6913 206.776 52.9271C205.238 52.1629 201.951 57.643 201.951 57.643Z" fill="#CFD8DC"/>
<path opacity="0.4" d="M201.951 57.643C200.904 59.3755 204.698 60.1763 206.944 58.4019C208.739 56.9783 208.315 53.6913 206.776 52.9271C205.238 52.1629 201.951 57.643 201.951 57.643Z" fill="black"/>
<path d="M217.815 183.962L213.738 184.265L212.246 174.881L216.323 174.577L217.815 183.962Z" fill="#E58A7B"/>
<path d="M246.655 170.845L243.195 173.023L237.034 165.716L240.494 163.533L246.655 170.845Z" fill="#E58A7B"/>
<path d="M212.246 174.88L213.073 180.093L217.093 179.418L216.328 174.582L212.246 174.88Z" fill="#CF6F64"/>
<path d="M240.499 163.538L237.034 165.715L239.589 168.741L243.127 166.652L240.499 163.538Z" fill="#CF6F64"/>
<path d="M198.669 92.7478C198.669 92.7478 198.611 125.105 201.254 137.29C204.008 149.966 212.105 178.806 212.105 178.806L217.977 178.047C217.977 178.047 213.387 148.914 211.429 136.316C209.299 122.587 210.608 90.4238 210.608 90.4238L198.669 92.7478Z" fill="#CFD8DC"/>
<path opacity="0.7" d="M198.669 92.7478C198.669 92.7478 198.611 125.105 201.254 137.29C204.008 149.966 212.105 178.806 212.105 178.806L217.977 178.047C217.977 178.047 213.387 148.914 211.429 136.316C209.299 122.587 210.608 90.4238 210.608 90.4238L198.669 92.7478Z" fill="black"/>
<path opacity="0.5" d="M210.241 104.765L207.363 101.897C207.472 114.328 208.169 120.467 210.561 127.157C210.184 120.085 210.152 111.721 210.241 104.765Z" fill="black"/>
<path d="M202.72 91.9099C202.72 91.9099 211.497 118.651 215.852 134.055C220.448 150.306 238.066 168.28 238.066 168.28L243.122 165.359C243.122 165.359 231.083 148.296 226.655 133.133C217.653 102.352 221.353 95.8302 214.711 89.5703L202.72 91.9099Z" fill="#CFD8DC"/>
<path opacity="0.7" d="M202.72 91.9099C202.72 91.9099 211.497 118.651 215.852 134.055C220.448 150.306 238.066 168.28 238.066 168.28L243.122 165.359C243.122 165.359 231.083 148.296 226.655 133.133C217.653 102.352 221.353 95.8302 214.711 89.5703L202.72 91.9099Z" fill="black"/>
<path d="M195.821 48.2007C198.156 48.9806 200.276 54.7747 200.365 57.0567C200.454 59.3388 193.602 62.4844 193.602 62.4844C193.602 62.4844 190.582 55.1568 191.425 50.4461C191.791 48.3996 195.821 48.2007 195.821 48.2007Z" fill="#263238"/>
<path d="M163.784 74.549L161.015 71.5342L160.109 75.3132C160.109 75.3132 162.077 77.0509 163.669 76.4542L163.784 74.549Z" fill="#E58A7B"/>
<path d="M158.21 70.6704L156.273 72.2092L160.11 75.313L161.015 71.534L158.21 70.6704Z" fill="#E58A7B"/>
<path d="M242.111 172.242L245.346 168.982C245.402 168.926 245.476 168.892 245.555 168.886C245.634 168.88 245.712 168.903 245.775 168.95L248.722 171.138C248.795 171.195 248.855 171.267 248.898 171.349C248.941 171.431 248.966 171.522 248.972 171.614C248.977 171.707 248.963 171.8 248.93 171.886C248.897 171.973 248.845 172.051 248.78 172.117C247.628 173.232 247.021 173.713 245.597 175.147C244.723 176.032 243.535 177.408 242.326 178.628C241.117 179.847 239.845 178.712 240.232 178.104C241.996 175.346 241.682 174.315 241.803 172.912C241.821 172.659 241.931 172.421 242.111 172.242Z" fill="#263238"/>
<path d="M213.466 183.679H218.061C218.142 183.679 218.22 183.707 218.282 183.758C218.345 183.81 218.387 183.882 218.401 183.961L219.124 187.594C219.14 187.683 219.136 187.775 219.113 187.863C219.089 187.95 219.047 188.032 218.988 188.101C218.93 188.171 218.857 188.227 218.774 188.265C218.692 188.303 218.602 188.322 218.511 188.321C216.904 188.295 216.13 188.201 214.109 188.201C212.869 188.201 210.304 188.327 208.588 188.327C206.871 188.327 206.688 186.631 207.394 186.479C210.535 185.788 211.765 184.841 212.796 183.93C212.983 183.77 213.22 183.681 213.466 183.679Z" fill="#263238"/>
<g style="mix-blend-mode:multiply" opacity="0.27">
<path d="M213.371 72.916L210.859 74.413L213.759 85.3155C213.125 82.0128 213.408 78.3856 213.371 72.916Z" fill="#CFD8DC"/>
</g>
<path d="M199.093 55.8948C200.878 57.3865 203.469 59.5586 206.52 57.0201C209.137 54.8323 210.969 49.0905 206.274 48.8811C203.819 48.7712 199.093 55.8948 199.093 55.8948Z" fill="#263238"/>
<path d="M203.406 56.915C203.406 59.3855 203.788 63.8397 205.761 65.1063C205.761 65.1063 205.583 67.6501 201.155 68.5085C196.293 69.4558 198.36 66.5457 198.36 66.5457C200.894 65.3942 200.454 63.4367 199.616 61.678L203.406 56.915Z" fill="#E58A7B"/>
<path d="M201.862 58.8569L199.621 61.6781C199.818 62.0858 199.979 62.5096 200.103 62.9447C201.087 62.5993 202.265 61.2175 202.165 60.134C202.144 59.6933 202.041 59.2602 201.862 58.8569V58.8569Z" fill="#CF6F64"/>
<path d="M203.641 51.2414C204.165 55.2664 204.484 56.957 202.872 59.3908C200.448 63.0547 195.392 62.8192 193.67 59.0349C192.1 55.6276 191.514 49.6136 195.094 47.2845C195.881 46.7633 196.789 46.4523 197.73 46.381C198.671 46.3097 199.615 46.4805 200.472 46.8771C201.329 47.2738 202.07 47.883 202.624 48.6469C203.179 49.4108 203.529 50.304 203.641 51.2414Z" fill="#E58A7B"/>
<path d="M196.649 44.1913C193.927 46.1226 199.386 46.6931 199.391 49.4934C199.391 50.6501 201.291 54.3192 203.992 54.1098L206.609 49.462C209.362 45.013 202.856 39.779 196.649 44.1913Z" fill="#263238"/>
<path d="M196.649 44.1915C191.859 43.9402 189.771 47.7506 190.321 51.1737C193.662 50.3407 197.117 50.0666 200.548 50.3624C207.112 51.0324 196.649 44.1915 196.649 44.1915Z" fill="#263238"/>
<path d="M204.95 54.7115C205.016 55.4928 204.77 56.2684 204.264 56.8679C203.589 57.6583 202.694 57.1924 202.38 56.2555C202.113 55.4076 202.144 53.9787 203.055 53.5286C203.256 53.4355 203.477 53.394 203.699 53.4079C203.92 53.4217 204.134 53.4904 204.322 53.6078C204.51 53.7252 204.666 53.8876 204.776 54.0802C204.885 54.2729 204.945 54.4899 204.95 54.7115V54.7115Z" fill="#E58A7B"/>
<path d="M197.826 53.5289C197.889 53.8534 197.769 54.1465 197.559 54.1884C197.35 54.2303 197.125 54 197.062 53.665C196.999 53.33 197.12 53.0421 197.329 53.0003C197.538 52.9584 197.763 53.2044 197.826 53.5289Z" fill="#263238"/>
<path d="M194.168 54.2408C194.23 54.5653 194.11 54.8637 193.901 54.9056C193.691 54.9474 193.466 54.7171 193.403 54.3821C193.341 54.0472 193.461 53.7593 193.67 53.7227C193.88 53.686 194.105 53.9111 194.168 54.2408Z" fill="#263238"/>
<path d="M193.77 53.7277L192.948 53.6597C192.948 53.6597 193.466 54.1883 193.77 53.7277Z" fill="#263238"/>
<path d="M195.246 54.6123C195.099 55.4052 194.845 56.1746 194.492 56.8996C194.68 56.9871 194.884 57.0324 195.091 57.0324C195.298 57.0324 195.503 56.9871 195.691 56.8996L195.246 54.6123Z" fill="#DF5753"/>
<path d="M197.057 57.9464C197.034 57.9467 197.012 57.9389 196.995 57.9245C196.978 57.9101 196.966 57.89 196.962 57.8678C196.96 57.8555 196.96 57.8427 196.963 57.8305C196.966 57.8182 196.971 57.8066 196.978 57.7963C196.986 57.7861 196.995 57.7774 197.006 57.7708C197.017 57.7642 197.029 57.7598 197.041 57.7579C197.446 57.6875 197.828 57.5229 198.157 57.2774C198.486 57.0319 198.753 56.7124 198.936 56.3447C198.94 56.3331 198.948 56.3224 198.956 56.3135C198.965 56.3045 198.976 56.2974 198.988 56.2926C198.999 56.2877 199.012 56.2852 199.024 56.2852C199.037 56.2851 199.05 56.2876 199.061 56.2924C199.073 56.2972 199.084 56.3043 199.093 56.3132C199.102 56.3221 199.109 56.3327 199.113 56.3444C199.118 56.356 199.121 56.3685 199.121 56.3812C199.121 56.3938 199.118 56.4063 199.114 56.418C198.922 56.8176 198.637 57.1651 198.282 57.4311C197.928 57.6972 197.515 57.8739 197.078 57.9464H197.057Z" fill="#263238"/>
<path d="M198.669 52.1366C198.621 52.1371 198.574 52.1204 198.538 52.0895C198.362 51.9221 198.148 51.7988 197.916 51.7297C197.683 51.6605 197.437 51.6475 197.198 51.6917C197.145 51.7049 197.089 51.6966 197.043 51.6686C196.996 51.6406 196.962 51.5953 196.949 51.5425C196.936 51.4897 196.944 51.4339 196.972 51.3873C197 51.3407 197.046 51.3071 197.098 51.2939C197.4 51.2345 197.712 51.2476 198.008 51.3323C198.303 51.4169 198.575 51.5706 198.799 51.7806C198.835 51.8169 198.855 51.8658 198.855 51.9167C198.855 51.9677 198.835 52.0166 198.799 52.0528C198.785 52.0753 198.766 52.0944 198.743 52.1088C198.72 52.1233 198.695 52.1327 198.669 52.1366V52.1366Z" fill="#263238"/>
<path d="M192.142 52.8642C192.118 52.8696 192.093 52.8696 192.069 52.8642C192.045 52.8545 192.023 52.8401 192.005 52.8218C191.987 52.8036 191.972 52.7819 191.963 52.758C191.953 52.7341 191.948 52.7085 191.948 52.6827C191.949 52.6569 191.954 52.6314 191.964 52.6077C192.076 52.3215 192.254 52.0661 192.484 51.863C192.715 51.6599 192.99 51.515 193.288 51.4405C193.314 51.4353 193.34 51.4352 193.365 51.4403C193.39 51.4455 193.414 51.4557 193.435 51.4704C193.456 51.4851 193.474 51.504 193.487 51.5259C193.501 51.5477 193.51 51.5721 193.514 51.5976C193.519 51.6223 193.519 51.6479 193.514 51.6728C193.509 51.6977 193.5 51.7214 193.485 51.7424C193.471 51.7634 193.453 51.7813 193.432 51.7951C193.411 51.8089 193.387 51.8182 193.362 51.8226C193.126 51.8868 192.909 52.0048 192.728 52.1675C192.546 52.3301 192.405 52.5328 192.315 52.7595C192.298 52.7908 192.273 52.817 192.243 52.8354C192.212 52.8538 192.178 52.8637 192.142 52.8642Z" fill="#263238"/>
<path d="M240.897 174.143C240.807 174.14 240.719 174.116 240.641 174.072C240.563 174.029 240.496 173.967 240.447 173.891C240.41 173.847 240.385 173.794 240.375 173.737C240.365 173.68 240.37 173.621 240.389 173.567C240.573 173.075 242.017 172.761 242.179 172.724C242.198 172.721 242.218 172.723 242.235 172.73C242.253 172.738 242.268 172.75 242.279 172.766C242.29 172.781 242.296 172.8 242.296 172.818C242.296 172.837 242.29 172.856 242.279 172.871C241.996 173.337 241.441 174.116 240.923 174.143H240.897ZM241.991 172.965C241.42 173.111 240.667 173.373 240.573 173.635C240.563 173.659 240.561 173.685 240.567 173.71C240.573 173.735 240.585 173.758 240.604 173.776C240.636 173.83 240.682 173.875 240.738 173.905C240.793 173.935 240.855 173.951 240.918 173.949C241.195 173.933 241.588 173.572 241.991 172.965Z" fill="#CFD8DC"/>
<path d="M241.755 172.965C241.232 172.965 240.578 172.834 240.384 172.552C240.341 172.487 240.321 172.41 240.328 172.333C240.335 172.256 240.367 172.184 240.421 172.128C240.467 172.069 240.524 172.021 240.59 171.987C240.656 171.953 240.729 171.933 240.803 171.929H240.845C241.431 171.929 242.237 172.719 242.268 172.75C242.281 172.762 242.29 172.777 242.295 172.794C242.299 172.81 242.299 172.828 242.295 172.845C242.29 172.861 242.281 172.876 242.269 172.887C242.257 172.899 242.243 172.908 242.226 172.913C242.072 172.95 241.914 172.967 241.755 172.965V172.965ZM240.845 172.122H240.813C240.766 172.124 240.72 172.136 240.679 172.158C240.637 172.18 240.601 172.21 240.572 172.248C240.499 172.347 240.52 172.405 240.546 172.442C240.703 172.682 241.504 172.818 241.996 172.761C241.682 172.441 241.282 172.219 240.845 172.122V172.122Z" fill="#CFD8DC"/>
<path d="M211.963 184.396C211.611 184.427 211.259 184.339 210.964 184.145C210.894 184.09 210.839 184.019 210.804 183.938C210.769 183.856 210.756 183.767 210.765 183.679C210.764 183.626 210.778 183.575 210.803 183.529C210.829 183.483 210.866 183.445 210.911 183.417C211.393 183.135 213.078 183.972 213.267 184.066C213.284 184.076 213.299 184.09 213.308 184.108C213.317 184.126 213.321 184.146 213.319 184.166C213.316 184.185 213.308 184.204 213.295 184.219C213.282 184.234 213.265 184.244 213.246 184.25C212.824 184.338 212.394 184.387 211.963 184.396V184.396ZM211.189 183.548C211.127 183.544 211.066 183.557 211.011 183.585C210.993 183.594 210.978 183.609 210.969 183.626C210.96 183.644 210.956 183.664 210.958 183.684C210.953 183.743 210.962 183.803 210.985 183.857C211.008 183.912 211.044 183.96 211.089 183.998C211.351 184.223 212.026 184.26 212.916 184.113C212.376 183.83 211.792 183.639 211.189 183.548V183.548Z" fill="#CFD8DC"/>
<path d="M213.225 184.239H213.188C212.665 184.014 211.654 183.124 211.728 182.669C211.728 182.564 211.822 182.428 212.084 182.402H212.162C213.073 182.402 213.308 184.066 213.319 184.14C213.321 184.157 213.319 184.175 213.313 184.191C213.306 184.208 213.296 184.222 213.282 184.234C213.264 184.241 213.244 184.243 213.225 184.239ZM212.178 182.585H212.12C211.953 182.585 211.942 182.664 211.942 182.685C211.9 182.962 212.591 183.658 213.115 183.967C213.01 183.559 212.743 182.596 212.157 182.596L212.178 182.585Z" fill="#CFD8DC"/>
<path d="M197.428 53.0157L196.607 52.9424C196.607 52.9424 197.125 53.4762 197.428 53.0157Z" fill="#263238"/>
<path d="M201.024 71.9891C192.268 73.9414 194.974 68.6446 195.497 67.4774L195.717 67.3936C196.764 67.0115 196.973 66.954 198.365 66.5457C200.795 65.8899 203.268 65.4089 205.766 65.1063L206.29 65.0331C206.813 64.965 207.289 64.9127 207.771 64.8708C208.095 64.8342 208.42 64.8132 208.729 64.7923L209.775 64.7295C209.953 65.546 210.388 69.9112 201.024 71.9891Z" fill="#E58A7B"/>
<path d="M214.769 88.5656L215.789 89.8845C215.868 89.984 215.758 90.1253 215.57 90.1619L198.475 93.4908C198.329 93.5222 198.193 93.4908 198.166 93.3809L197.732 91.952C197.732 91.8525 197.816 91.7426 197.973 91.7112L214.481 88.4975C214.531 88.4829 214.583 88.4814 214.634 88.4934C214.684 88.5053 214.731 88.5302 214.769 88.5656V88.5656Z" fill="#26395A"/>
<path d="M212.911 90.8426L213.356 90.7589C213.445 90.7589 213.502 90.6856 213.487 90.628L212.911 88.7752C212.911 88.7176 212.806 88.6914 212.717 88.7071L212.277 88.7909C212.188 88.7909 212.131 88.8694 212.147 88.9217L212.722 90.7798C212.738 90.8322 212.827 90.8636 212.911 90.8426Z" fill="#CFD8DC"/>
<path d="M202.898 97.0186L199.491 95.752L200.014 98.9918C200.014 98.9918 202.485 99.8816 203.746 98.7406L202.898 97.0186Z" fill="#E58A7B"/>
<path d="M196.245 96.6103L195.434 98.7354L200.014 98.9918L199.49 95.752L196.245 96.6103Z" fill="#E58A7B"/>
<path d="M199.747 93.4071L200.192 93.3233C200.276 93.3233 200.338 93.2501 200.317 93.1925L199.742 91.3396C199.742 91.282 199.642 91.2559 199.553 91.2716L199.108 91.3553C199.019 91.3553 198.962 91.4338 198.983 91.4862L199.559 93.3443C199.574 93.3966 199.658 93.428 199.747 93.4071Z" fill="#CFD8DC"/>
<path d="M206.332 92.1195L206.771 92.0357C206.86 92.0357 206.918 91.9625 206.902 91.9049L206.326 90.052C206.326 89.9945 206.222 89.9683 206.133 89.984L205.693 90.0677C205.604 90.0677 205.546 90.1462 205.562 90.1986L206.138 92.0567C206.159 92.087 206.189 92.1095 206.224 92.1209C206.259 92.1322 206.297 92.1317 206.332 92.1195Z" fill="#CFD8DC"/>
<path d="M204.468 63.0287C204.84 62.8874 205.305 64.1959 205.19 64.3634C204.923 64.7455 200.035 66.0802 199.815 65.3317C199.801 64.926 199.863 64.5213 199.998 64.1383C200.139 63.8871 201.223 64.3477 204.468 63.0287Z" fill="#CFD8DC"/>
<path d="M203.641 63.0602C203.83 62.6258 204.369 61.9296 204.84 62.3274C205.311 62.7252 205.51 63.5836 205.201 63.7249C204.892 63.8662 203.317 63.7877 203.641 63.0602Z" fill="#CFD8DC"/>
<path d="M204.641 63.2853C204.965 62.9398 205.688 62.4635 206.017 62.9974C206.347 63.5313 206.227 64.4054 205.892 64.4316C205.557 64.4577 204.091 63.8558 204.641 63.2853Z" fill="#CFD8DC"/>
<path d="M204.819 63.2065C204.793 62.9282 204.847 62.6483 204.976 62.4003C205.105 62.1524 205.303 61.947 205.546 61.809C206.143 61.4217 206.724 61.1705 206.954 60.7622C207.054 61.145 207.073 61.544 207.012 61.9346C206.892 62.4947 205.034 62.9239 205.159 63.4106L204.819 63.2065Z" fill="#CFD8DC"/>
<path d="M204.74 63.1803C204.567 62.9606 204.461 62.6955 204.435 62.4169C204.409 62.1382 204.464 61.858 204.594 61.6101C204.877 60.9611 205.232 60.4376 205.211 59.9771C205.502 60.2448 205.736 60.5689 205.897 60.9297C206.096 61.4531 204.772 62.8296 205.143 63.1751L204.74 63.1803Z" fill="#CFD8DC"/>
<path d="M241.143 165.428C241.132 165.428 241.122 165.424 241.113 165.419C241.104 165.413 241.096 165.406 241.091 165.396C240.97 165.229 229.005 148.155 224.619 133.155C221.757 123.532 219.557 113.725 218.035 103.802C217.129 98.2121 216.58 94.8361 214.779 92.0673C214.767 92.0546 214.76 92.0378 214.76 92.0202C214.76 92.0027 214.767 91.9858 214.779 91.9731C214.792 91.9624 214.807 91.9565 214.824 91.9565C214.84 91.9565 214.856 91.9624 214.868 91.9731C216.69 94.7681 217.239 98.1545 218.145 103.76C219.674 113.669 221.877 123.462 224.74 133.071C229.121 148.051 241.075 165.103 241.196 165.276C241.205 165.289 241.211 165.305 241.211 165.321C241.211 165.337 241.205 165.352 241.196 165.365C241.195 165.38 241.189 165.394 241.18 165.405C241.17 165.417 241.158 165.424 241.143 165.428V165.428Z" fill="#CFD8DC"/>
<path opacity="0.4" d="M241.143 165.428C241.132 165.428 241.122 165.424 241.113 165.419C241.104 165.413 241.096 165.406 241.091 165.396C240.97 165.229 229.005 148.155 224.619 133.155C221.757 123.532 219.557 113.725 218.035 103.802C217.129 98.2121 216.58 94.8361 214.779 92.0673C214.767 92.0546 214.76 92.0378 214.76 92.0202C214.76 92.0027 214.767 91.9858 214.779 91.9731C214.792 91.9624 214.807 91.9565 214.824 91.9565C214.84 91.9565 214.856 91.9624 214.868 91.9731C216.69 94.7681 217.239 98.1545 218.145 103.76C219.674 113.669 221.877 123.462 224.74 133.071C229.121 148.051 241.075 165.103 241.196 165.276C241.205 165.289 241.211 165.305 241.211 165.321C241.211 165.337 241.205 165.352 241.196 165.365C241.195 165.38 241.189 165.394 241.18 165.405C241.17 165.417 241.158 165.424 241.143 165.428V165.428Z" fill="black"/>
<path d="M219.029 178.026L211.032 179.062L210.508 176.833L218.836 175.069L219.029 178.026Z" fill="#CFD8DC"/>
<path d="M243.546 165.182L237.647 168.589L235.658 166.888L242.112 162.523L243.546 165.182Z" fill="#CFD8DC"/>
<path d="M215.863 70.2046C216.145 71.6597 216.308 73.031 216.465 74.4494C216.622 75.8678 216.679 77.2706 216.721 78.689C216.763 80.1186 216.731 81.5493 216.627 82.9757C216.569 83.6928 216.507 84.4098 216.407 85.1321C216.365 85.488 216.318 85.8492 216.25 86.2103L216.056 87.32C215.842 88.2244 215.449 89.0768 214.9 89.8271C214.449 90.4583 213.953 91.0549 213.413 91.6119C212.403 92.6494 211.319 93.6115 210.168 94.4906C207.942 96.2043 205.587 97.7425 203.123 99.0914L202.003 97.3536C203.05 96.5214 204.097 95.6631 205.143 94.789C206.19 93.9149 207.185 93.0303 208.142 92.1091C209.089 91.2225 209.982 90.2804 210.817 89.288C211.201 88.8288 211.55 88.3425 211.864 87.8329C212.111 87.4616 212.289 87.0483 212.387 86.6134C212.558 85.3428 212.657 84.0637 212.686 82.782C212.686 82.1278 212.686 81.4735 212.686 80.8193C212.686 80.165 212.659 79.5003 212.628 78.8408C212.565 77.5218 212.445 76.2238 212.304 74.8838C212.162 73.5439 211.979 72.2197 211.78 70.9792L215.863 70.2046Z" fill="#E58A7B"/>
<path d="M215.229 65.7554C217.464 67.5664 216.93 72.947 216.93 72.947L209.393 75.428C209.393 75.428 209.739 69.2256 210.116 66.9959C210.555 64.3422 213.026 63.9706 215.229 65.7554Z" fill="#CFD8DC"/>
<path opacity="0.2" d="M215.229 65.7554C217.464 67.5664 216.93 72.947 216.93 72.947L209.393 75.428C209.393 75.428 209.739 69.2256 210.116 66.9959C210.555 64.3422 213.026 63.9706 215.229 65.7554Z" fill="black"/>
<path d="M115.662 88.2093C115.369 86.9402 114.655 85.8078 113.636 84.9969C112.617 84.186 111.353 83.7445 110.051 83.7446H68.1784C66.6514 83.7446 65.187 84.3512 64.1072 85.431C63.0275 86.5107 62.4209 87.9751 62.4209 89.5021V182.574C62.4209 184.101 63.0275 185.566 64.1072 186.645C65.187 187.725 66.6514 188.332 68.1784 188.332H201.123C202.65 188.332 204.115 187.725 205.195 186.645C206.274 185.566 206.881 184.101 206.881 182.574V104.393C206.881 102.866 206.274 101.402 205.195 100.322C204.115 99.2421 202.65 98.6355 201.123 98.6355H128.763C125.721 98.636 122.77 97.6052 120.39 95.7115C118.011 93.8177 116.344 91.1729 115.662 88.2093V88.2093Z" fill="#CFD8DC"/>
<path opacity="0.6" d="M115.662 88.2093C115.369 86.9402 114.655 85.8078 113.636 84.9969C112.617 84.186 111.353 83.7445 110.051 83.7446H68.1784C66.6514 83.7446 65.187 84.3512 64.1072 85.431C63.0275 86.5107 62.4209 87.9751 62.4209 89.5021V182.574C62.4209 184.101 63.0275 185.566 64.1072 186.645C65.187 187.725 66.6514 188.332 68.1784 188.332H201.123C202.65 188.332 204.115 187.725 205.195 186.645C206.274 185.566 206.881 184.101 206.881 182.574V104.393C206.881 102.866 206.274 101.402 205.195 100.322C204.115 99.2421 202.65 98.6355 201.123 98.6355H128.763C125.721 98.636 122.77 97.6052 120.39 95.7115C118.011 93.8177 116.344 91.1729 115.662 88.2093V88.2093Z" fill="black"/>
<path opacity="0.22" d="M100.881 59.2231L104.613 71.3086C105.089 72.8467 106.157 74.1329 107.581 74.8846C109.004 75.6363 110.669 75.7922 112.207 75.3179L124.288 71.586L100.881 59.2231Z" fill="#CFD8DC"/>
<path d="M100.881 59.2231L57.6998 72.5648C56.9376 72.7989 56.2289 73.1811 55.6145 73.6894C55.0001 74.1977 54.4919 74.8222 54.119 75.5271C53.7462 76.232 53.5159 77.0035 53.4415 77.7974C53.3671 78.5914 53.4499 79.3922 53.6853 80.1541L78.3377 159.963C78.573 160.725 78.9561 161.433 79.4652 162.047C79.9742 162.661 80.5992 163.169 81.3045 163.541C82.0097 163.913 82.7815 164.143 83.5755 164.217C84.3696 164.291 85.1704 164.208 85.9324 163.972L141.199 146.899C141.961 146.664 142.669 146.282 143.283 145.773C143.896 145.264 144.404 144.64 144.776 143.935C145.149 143.23 145.378 142.459 145.453 141.665C145.527 140.872 145.444 140.071 145.208 139.309L124.272 71.586L100.881 59.2231Z" fill="#CFD8DC"/>
<path opacity="0.8" d="M100.881 59.2231L57.6998 72.5648C56.9376 72.7989 56.2289 73.1811 55.6145 73.6894C55.0001 74.1977 54.4919 74.8222 54.119 75.5271C53.7462 76.232 53.5159 77.0035 53.4415 77.7974C53.3671 78.5914 53.4499 79.3922 53.6853 80.1541L78.3377 159.963C78.573 160.725 78.9561 161.433 79.4652 162.047C79.9742 162.661 80.5992 163.169 81.3045 163.541C82.0097 163.913 82.7815 164.143 83.5755 164.217C84.3696 164.291 85.1704 164.208 85.9324 163.972L141.199 146.899C141.961 146.664 142.669 146.282 143.283 145.773C143.896 145.264 144.404 144.64 144.776 143.935C145.149 143.23 145.378 142.459 145.453 141.665C145.527 140.872 145.444 140.071 145.208 139.309L124.272 71.586L100.881 59.2231Z" fill="white"/>
<g opacity="0.28">
<path opacity="0.28" d="M124.115 143.413L88.1883 154.509C87.5164 154.715 86.7902 154.647 86.1683 154.32C85.5465 153.992 85.0797 153.432 84.8699 152.761V152.761C84.6654 152.089 84.7349 151.363 85.0635 150.743C85.392 150.122 85.9527 149.656 86.6233 149.448L122.55 138.346C123.222 138.14 123.949 138.209 124.571 138.538C125.193 138.866 125.66 139.428 125.868 140.1V140.1C126.073 140.772 126.003 141.497 125.675 142.118C125.346 142.739 124.785 143.204 124.115 143.413V143.413Z" fill="#CFD8DC"/>
</g>
<g opacity="0.28">
<path opacity="0.28" d="M85.4508 78.291L66.4512 84.1584C65.7793 84.3633 65.0537 84.2946 64.4322 83.9672C63.8107 83.6398 63.3437 83.0802 63.1328 82.4102V82.4102C62.9281 81.7377 62.9975 81.0115 63.3259 80.3899C63.6544 79.7683 64.2152 79.3017 64.8862 79.0918L83.8858 73.2245C84.5577 73.0166 85.2846 73.084 85.9068 73.4118C86.529 73.7396 86.9956 74.301 87.2042 74.9726V74.9726C87.4089 75.6452 87.3395 76.3714 87.011 76.993C86.6826 77.6146 86.1218 78.0812 85.4508 78.291V78.291Z" fill="black"/>
</g>
<g opacity="0.28">
<path opacity="0.28" d="M100.954 84.5143L69.5496 94.213C68.8791 94.4144 68.1563 94.3432 67.538 94.015C66.9196 93.6867 66.4557 93.1278 66.2469 92.4596C66.0407 91.7885 66.1089 91.0629 66.4366 90.4419C66.7642 89.8209 67.3246 89.3551 67.9951 89.1465L99.3994 79.4478C100.071 79.2414 100.798 79.3095 101.419 79.637C102.041 79.9646 102.508 80.5251 102.718 81.1959V81.1959C102.921 81.8699 102.849 82.5967 102.519 83.2181C102.188 83.8396 101.626 84.3055 100.954 84.5143Z" fill="black"/>
</g>
<g opacity="0.28">
<path opacity="0.28" d="M118.488 90.1095L72.659 104.242C71.9879 104.448 71.2623 104.38 70.6413 104.052C70.0203 103.724 69.5545 103.164 69.3459 102.493C69.141 101.821 69.2097 101.096 69.5371 100.474C69.8645 99.8529 70.424 99.3859 71.0941 99.1749L116.923 85.043C117.595 84.8382 118.32 84.9071 118.94 85.2345C119.561 85.562 120.027 86.1215 120.237 86.7912V86.7912C120.443 87.463 120.375 88.1893 120.047 88.8111C119.72 89.4329 119.159 89.8998 118.488 90.1095V90.1095Z" fill="black"/>
</g>
<g opacity="0.28">
<path opacity="0.28" d="M121.592 100.159L94.9506 108.392C94.2787 108.596 93.5532 108.527 92.9325 108.198C92.3118 107.87 91.8462 107.309 91.6375 106.639C91.4327 105.967 91.5015 105.242 91.829 104.622C92.1565 104.001 92.716 103.535 93.3856 103.325L120.027 95.0922C120.7 94.8889 121.425 94.959 122.046 95.2873C122.668 95.6155 123.134 96.1754 123.345 96.8456V96.8456C123.55 97.5175 123.48 98.243 123.152 98.8637C122.823 99.4845 122.263 99.95 121.592 100.159V100.159Z" fill="#CFD8DC"/>
</g>
<g opacity="0.28">
<path opacity="0.28" d="M82.7344 112.166L75.7679 114.317C75.096 114.523 74.3698 114.455 73.7479 114.128C73.1261 113.8 72.6593 113.24 72.4495 112.569V112.569C72.2434 111.896 72.3121 111.169 72.6408 110.548C72.9694 109.926 73.5311 109.459 74.2029 109.25L81.1694 107.099C81.8413 106.894 82.5669 106.963 83.1884 107.29C83.8099 107.618 84.2769 108.177 84.4878 108.847V108.847C84.6911 109.52 84.621 110.246 84.2928 110.867C83.9645 111.488 83.4046 111.955 82.7344 112.166V112.166Z" fill="black"/>
</g>
<g opacity="0.28">
<path opacity="0.28" d="M124.701 110.214L78.8716 124.372C78.1997 124.576 77.4742 124.507 76.8535 124.178C76.2327 123.85 75.7672 123.289 75.5584 122.618V122.618C75.3522 121.947 75.4204 121.222 75.7481 120.601C76.0758 119.98 76.6362 119.514 77.3066 119.305L123.136 105.147C123.807 104.942 124.532 105.011 125.153 105.339C125.773 105.666 126.239 106.226 126.449 106.895V106.895C126.656 107.567 126.587 108.293 126.26 108.915C125.932 109.537 125.372 110.004 124.701 110.214V110.214Z" fill="#CFD8DC"/>
</g>
<g opacity="0.28">
<path opacity="0.28" d="M110.119 125.727L81.9754 134.421C81.3043 134.625 80.5794 134.557 79.9587 134.229C79.3381 133.902 78.8721 133.342 78.6623 132.673V132.673C78.4574 132.001 78.5261 131.275 78.8535 130.654C79.1809 130.032 79.7405 129.565 80.4105 129.354L108.554 120.66C109.227 120.456 109.953 120.525 110.574 120.854C111.196 121.182 111.663 121.743 111.872 122.414V122.414C112.078 123.086 112.009 123.812 111.681 124.433C111.352 125.054 110.79 125.519 110.119 125.727Z" fill="#CFD8DC"/>
</g>
<g opacity="0.28">
<path opacity="0.28" d="M127.805 120.268L120.294 122.587C119.621 122.791 118.895 122.722 118.274 122.394C117.652 122.065 117.185 121.504 116.976 120.833V120.833C116.771 120.161 116.841 119.436 117.169 118.815C117.498 118.194 118.058 117.729 118.729 117.52L126.24 115.201C126.911 114.995 127.637 115.063 128.258 115.391C128.879 115.719 129.344 116.279 129.553 116.95V116.95C129.759 117.622 129.691 118.348 129.364 118.97C129.036 119.591 128.476 120.058 127.805 120.268V120.268Z" fill="#CFD8DC"/>
</g>
<g opacity="0.28">
<path opacity="0.28" d="M130.909 130.328L85.0897 144.46C84.4172 144.666 83.6903 144.597 83.0684 144.269C82.4464 143.94 81.98 143.378 81.7714 142.707V142.707C81.5654 142.035 81.6343 141.309 81.963 140.687C82.2917 140.066 82.8534 139.601 83.5248 139.393L129.349 125.235C130.022 125.032 130.747 125.102 131.368 125.43C131.99 125.759 132.456 126.318 132.667 126.989V126.989C132.772 127.323 132.81 127.676 132.779 128.025C132.747 128.374 132.647 128.714 132.483 129.024C132.32 129.335 132.096 129.61 131.826 129.834C131.556 130.057 131.244 130.225 130.909 130.328V130.328Z" fill="#CFD8DC"/>
</g>
<path d="M131.893 29.2109L145.595 59.7464C145.951 60.5435 145.977 61.449 145.667 62.265C145.357 63.0811 144.737 63.7412 143.942 64.1012L85.8121 90.1929C85.0151 90.5501 84.1091 90.5765 83.2927 90.2665C82.4763 89.9564 81.8162 89.3351 81.4573 88.539L67.7493 58.0035C67.3905 57.206 67.3632 56.2986 67.6734 55.481C67.9835 54.6633 68.6058 54.0024 69.4033 53.6435L127.533 27.5517C128.331 27.1961 129.238 27.171 130.055 27.4819C130.872 27.7928 131.533 28.4144 131.893 29.2109V29.2109Z" fill="#CFD8DC"/>
<path opacity="0.3" d="M131.893 29.2109L145.595 59.7464C145.951 60.5435 145.977 61.449 145.667 62.265C145.357 63.0811 144.737 63.7412 143.942 64.1012L85.8121 90.1929C85.0151 90.5501 84.1091 90.5765 83.2927 90.2665C82.4763 89.9564 81.8162 89.3351 81.4573 88.539L67.7493 58.0035C67.3905 57.206 67.3632 56.2986 67.6734 55.481C67.9835 54.6633 68.6058 54.0024 69.4033 53.6435L127.533 27.5517C128.331 27.1961 129.238 27.171 130.055 27.4819C130.872 27.7928 131.533 28.4144 131.893 29.2109V29.2109Z" fill="black"/>
<path d="M122.731 27.7023L120.874 28.5356L121.088 29.0132L122.945 28.1799L122.731 27.7023Z" fill="#CFD8DC"/>
<path d="M118.272 29.7003L112.479 32.2988L112.693 32.7764L118.486 30.1779L118.272 29.7003Z" fill="#CFD8DC"/>
<path d="M67.6975 61.081L67.22 61.2954L68.8064 64.8288L69.2839 64.6144L67.6975 61.081Z" fill="#CFD8DC"/>
<path opacity="0.6" d="M129.945 27.442L114.955 56.8051C113.564 59.5266 111.286 61.6921 108.498 62.9436C105.709 64.1951 102.577 64.4576 99.6194 63.6878L67.7178 55.3709C68.045 54.6055 68.646 53.9896 69.4031 53.6437L127.533 27.5519C128.294 27.2114 129.156 27.1721 129.945 27.442Z" fill="#CFD8DC"/>
<path d="M150.552 65.0225L105.445 67.807C104.648 67.8543 103.868 68.0584 103.15 68.4075C102.432 68.7565 101.79 69.2437 101.261 69.8412C100.732 70.4387 100.325 71.1347 100.065 71.8895C99.8049 72.6442 99.6961 73.4428 99.745 74.2396L104.89 157.608C104.938 158.405 105.143 159.185 105.493 159.903C105.843 160.621 106.331 161.263 106.93 161.792C107.528 162.321 108.225 162.727 108.981 162.986C109.737 163.245 110.536 163.353 111.333 163.302L169.065 159.738C169.861 159.69 170.64 159.485 171.356 159.136C172.073 158.786 172.714 158.299 173.242 157.701C173.77 157.104 174.175 156.408 174.434 155.654C174.692 154.899 174.799 154.101 174.749 153.305L170.405 82.5566L150.552 65.0225Z" fill="#CFD8DC"/>
<path opacity="0.8" d="M150.552 65.0225L105.445 67.807C104.648 67.8543 103.868 68.0584 103.15 68.4075C102.432 68.7565 101.79 69.2437 101.261 69.8412C100.732 70.4387 100.325 71.1347 100.065 71.8895C99.8049 72.6442 99.6961 73.4428 99.745 74.2396L104.89 157.608C104.938 158.405 105.143 159.185 105.493 159.903C105.843 160.621 106.331 161.263 106.93 161.792C107.528 162.321 108.225 162.727 108.981 162.986C109.737 163.245 110.536 163.353 111.333 163.302L169.065 159.738C169.861 159.69 170.64 159.485 171.356 159.136C172.073 158.786 172.714 158.299 173.242 157.701C173.77 157.104 174.175 156.408 174.434 155.654C174.692 154.899 174.799 154.101 174.749 153.305L170.405 82.5566L150.552 65.0225Z" fill="white"/>
<g opacity="0.22">
<path opacity="0.22" d="M153.279 152.311L115.746 154.63C115.044 154.67 114.356 154.431 113.83 153.965C113.305 153.499 112.985 152.844 112.94 152.143V152.143C112.9 151.443 113.138 150.754 113.603 150.228C114.067 149.702 114.721 149.38 115.421 149.333L152.955 147.019C153.656 146.978 154.345 147.215 154.872 147.68C155.398 148.145 155.719 148.799 155.765 149.5V149.5C155.807 150.202 155.569 150.892 155.103 151.419C154.637 151.946 153.981 152.266 153.279 152.311V152.311Z" fill="#CFD8DC"/>
</g>
<g opacity="0.22">
<path opacity="0.22" d="M131.066 79.9132L111.213 81.1275C110.512 81.1677 109.823 80.9297 109.297 80.4651C108.771 80.0005 108.449 79.347 108.402 78.6466V78.6466C108.362 77.9449 108.601 77.2557 109.066 76.7292C109.532 76.2028 110.187 75.8817 110.888 75.8359L130.741 74.6111C131.442 74.5695 132.13 74.8073 132.656 75.2722C133.182 75.7372 133.502 76.3916 133.546 77.092C133.591 77.795 133.355 78.4869 132.89 79.0158C132.424 79.5447 131.768 79.8675 131.066 79.9132V79.9132Z" fill="black"/>
</g>
<g opacity="0.22">
<path opacity="0.22" d="M144.664 89.6174L111.862 91.6377C111.16 91.6807 110.47 91.4437 109.944 90.9785C109.417 90.5134 109.096 89.8582 109.051 89.1568V89.1568C109.01 88.4547 109.248 87.7648 109.714 87.2381C110.18 86.7113 110.836 86.3906 111.537 86.3461L144.334 84.3258C145.036 84.2828 145.726 84.5199 146.252 84.985C146.779 85.4501 147.1 86.1053 147.145 86.8067V86.8067C147.186 87.5079 146.949 88.1971 146.484 88.7237C146.019 89.2503 145.365 89.5716 144.664 89.6174V89.6174Z" fill="black"/>
</g>
<g opacity="0.22">
<path opacity="0.22" d="M160.382 99.1904L112.511 102.142C111.807 102.185 111.116 101.948 110.587 101.482C110.058 101.016 109.735 100.359 109.69 99.6562V99.6562C109.648 98.9555 109.886 98.2669 110.351 97.7412C110.816 97.2154 111.47 96.8952 112.171 96.8507L160.047 93.8935C160.748 93.8534 161.436 94.0923 161.962 94.5581C162.488 95.0239 162.808 95.6788 162.852 96.3797V96.3797C162.894 97.0792 162.658 97.7669 162.195 98.2932C161.732 98.8195 161.081 99.1419 160.382 99.1904V99.1904Z" fill="black"/>
</g>
<g opacity="0.22">
<path opacity="0.22" d="M161.031 109.69L133.201 111.407C132.5 111.449 131.811 111.211 131.284 110.746C130.758 110.281 130.436 109.627 130.39 108.926C130.347 108.224 130.585 107.535 131.05 107.008C131.515 106.481 132.17 106.16 132.871 106.115L160.701 104.399C161.402 104.356 162.092 104.593 162.619 105.058C163.146 105.523 163.467 106.178 163.512 106.879C163.553 107.581 163.316 108.27 162.851 108.796C162.386 109.323 161.732 109.644 161.031 109.69Z" fill="#CFD8DC"/>
</g>
<g opacity="0.22">
<path opacity="0.22" d="M120.435 112.192L113.154 112.642C112.454 112.684 111.765 112.446 111.239 111.981C110.714 111.516 110.393 110.862 110.349 110.161V110.161C110.307 109.46 110.545 108.771 111.01 108.244C111.475 107.718 112.129 107.396 112.83 107.35L120.11 106.9C120.812 106.86 121.501 107.099 122.028 107.565C122.554 108.03 122.875 108.685 122.921 109.387C122.961 110.088 122.722 110.776 122.257 111.302C121.791 111.828 121.136 112.148 120.435 112.192V112.192Z" fill="#CFD8DC"/>
</g>
<g opacity="0.22">
<path opacity="0.22" d="M161.679 120.189L113.804 123.141C113.102 123.183 112.413 122.945 111.887 122.481C111.36 122.016 111.039 121.361 110.993 120.66C110.953 119.959 111.191 119.27 111.657 118.743C112.123 118.217 112.778 117.896 113.479 117.85L161.35 114.898C162.052 114.856 162.742 115.094 163.268 115.56C163.795 116.026 164.116 116.682 164.16 117.384C164.202 118.085 163.964 118.773 163.499 119.299C163.034 119.825 162.38 120.145 161.679 120.189V120.189Z" fill="#CFD8DC"/>
</g>
<g opacity="0.22">
<path opacity="0.22" d="M143.852 131.83L114.453 133.646C113.751 133.687 113.062 133.448 112.535 132.982C112.009 132.516 111.688 131.862 111.642 131.16V131.16C111.602 130.459 111.841 129.77 112.307 129.245C112.772 128.719 113.427 128.399 114.128 128.355L143.528 126.539C144.229 126.498 144.918 126.737 145.443 127.203C145.969 127.669 146.289 128.324 146.333 129.025V129.025C146.376 129.726 146.139 130.415 145.674 130.941C145.209 131.467 144.553 131.787 143.852 131.83V131.83Z" fill="#CFD8DC"/>
</g>
<g opacity="0.22">
<path opacity="0.22" d="M162.324 130.694L154.473 131.176C153.772 131.217 153.083 130.979 152.557 130.514C152.032 130.049 151.712 129.395 151.667 128.695V128.695C151.624 127.993 151.861 127.303 152.326 126.776C152.791 126.249 153.447 125.928 154.148 125.884L161.999 125.402C162.701 125.359 163.391 125.597 163.918 126.062C164.444 126.527 164.765 127.182 164.81 127.883C164.85 128.585 164.611 129.274 164.146 129.801C163.68 130.327 163.025 130.648 162.324 130.694Z" fill="#CFD8DC"/>
</g>
<g opacity="0.22">
<path opacity="0.22" d="M162.972 141.194L115.102 144.146C114.401 144.187 113.711 143.95 113.185 143.485C112.658 143.02 112.337 142.366 112.291 141.665V141.665C112.249 140.964 112.487 140.274 112.952 139.748C113.417 139.221 114.071 138.9 114.772 138.854L162.648 135.902C163.349 135.861 164.037 136.098 164.563 136.563C165.089 137.028 165.409 137.683 165.453 138.383C165.496 139.085 165.259 139.775 164.794 140.301C164.329 140.828 163.674 141.149 162.972 141.194Z" fill="#CFD8DC"/>
</g>
<path opacity="0.22" d="M150.552 65.0225L151.332 77.647C151.381 78.443 151.586 79.2216 151.935 79.9383C152.285 80.6551 152.772 81.2959 153.37 81.8243C153.967 82.3526 154.663 82.7581 155.417 83.0175C156.171 83.277 156.969 83.3854 157.765 83.3364L170.405 82.5566L150.552 65.0225Z" fill="#CFD8DC"/>
<path opacity="0.5" d="M135.781 96.5157C135.774 95.9108 135.645 95.3135 135.402 94.7592C135.159 94.205 134.808 93.705 134.369 93.2888C133.93 92.8726 133.412 92.5486 132.845 92.336C132.279 92.1234 131.675 92.0266 131.071 92.0511H89.146C85.969 92.0511 82.8652 94.6315 82.2685 97.8086L65.7236 182.574C65.106 185.751 67.1787 188.332 70.3558 188.332H203.301C206.478 188.332 209.556 185.756 210.178 182.574L223.824 112.699C224.441 109.517 222.368 106.942 219.191 106.942H146.852C140.571 106.942 135.996 102.619 135.781 96.5157Z" fill="#CFD8DC"/>
</svg>
